<svg width="37" height="37" viewBox="0 0 37 37" fill="none" xmlns="http://www.w3.org/2000/svg">
<path fill-rule="evenodd" clip-rule="evenodd" d="M24.8838 10.5106C25.0958 10.5108 25.299 10.595 25.4489 10.7449C25.5987 10.8948 25.683 11.098 25.6831 11.3099L25.6929 21.8569C25.6948 21.963 25.6756 22.0685 25.6362 22.1672C25.5969 22.2658 25.5384 22.3557 25.464 22.4315C25.3896 22.5072 25.3008 22.5674 25.2029 22.6086C25.105 22.6497 24.9998 22.6709 24.8936 22.6709C24.7874 22.671 24.6823 22.6499 24.5843 22.6088C24.4864 22.5678 24.3976 22.5077 24.3231 22.432C24.2486 22.3563 24.19 22.2665 24.1506 22.1679C24.1112 22.0693 24.0918 21.9638 24.0936 21.8576L24.0853 13.2411L11.8855 25.4574C11.7357 25.6076 11.5324 25.6922 11.3203 25.6925C11.1081 25.6927 10.9046 25.6087 10.7544 25.459C10.6042 25.3092 10.5197 25.1058 10.5194 24.8937C10.5191 24.6816 10.6031 24.4781 10.7529 24.3279L22.9565 12.1092L14.3354 12.1009C14.2292 12.1027 14.1237 12.0834 14.0251 12.044C13.9265 12.0045 13.8367 11.9459 13.761 11.8714C13.6853 11.7969 13.6252 11.7081 13.5842 11.6102C13.5431 11.5122 13.522 11.4071 13.5221 11.3009C13.5221 11.1947 13.5433 11.0896 13.5845 10.9916C13.6256 10.8937 13.6858 10.805 13.7616 10.7306C13.8373 10.6562 13.9272 10.5976 14.0258 10.5583C14.1245 10.519 14.23 10.4997 14.3362 10.5016L24.8838 10.5106Z" fill="#1A1A1A"/>
</svg>
