<svg width="549" height="134" viewBox="0 0 549 134" fill="none" xmlns="http://www.w3.org/2000/svg">
<path d="M136.433 45.5886H42.0306C45.9325 47.0445 49.4267 48.8499 52.455 51.0629C55.5999 52.8682 58.337 54.9647 60.6083 57.3525C62.8795 59.7402 64.6849 62.3609 66.0243 65.2728C66.6067 66.6122 67.0726 67.777 67.422 68.8253C67.7132 69.8735 67.8879 71.3294 67.8879 73.3095C67.8879 77.4443 67.0726 81.1715 65.442 84.4328C63.8113 87.6941 61.1906 90.8389 57.6382 93.7508C54.6098 96.3132 50.8826 98.4098 46.4566 100.157C42.2053 101.496 37.7792 102.137 33.295 102.137C35.2168 106.039 37.3716 109.417 39.5846 112.27C41.8559 115.124 44.2436 117.57 46.806 119.666C47.2719 120.016 48.2037 120.773 49.5432 121.879C50.3003 122.52 51.2321 123.161 52.455 123.859L57.7546 126.072L61.4236 124.791L65.2673 122.578C67.0726 121.355 68.878 119.783 70.5668 117.803L75.3423 111.571C72.5469 108.135 70.2174 104.35 68.4121 100.215C67.8297 98.5263 67.2473 96.488 66.7814 94.1585C66.3155 91.829 66.0243 89.7324 66.0243 87.7524C66.0243 83.3846 66.7814 79.2497 68.2956 75.406C69.8098 71.5624 72.2557 68.0099 75.517 64.6904C78.8365 61.3709 82.4473 58.9249 86.4074 57.2942C90.3675 55.6636 94.5606 54.8483 98.9284 54.8483H106.266C110.518 54.8483 114.711 55.7801 118.729 57.5854C122.398 58.9249 126.009 61.3127 129.503 64.6904C132.648 68.0682 135.094 71.6788 136.724 75.406C138.355 79.1914 139.17 83.2681 139.17 87.7524C139.17 90.0819 138.996 92.2366 138.646 94.2167C138.297 96.1968 137.598 98.2933 136.608 100.506C135.152 104.292 132.764 107.786 129.445 111.047C126.125 114.309 122.515 116.755 118.554 118.327C114.594 119.899 110.459 120.715 106.208 120.715H98.9284L90.3093 120.191C88.6204 119.841 87.3392 119.492 86.4656 119.201C85.5921 118.909 84.4855 118.385 83.1461 117.628C81.5737 119.958 79.8266 121.938 78.0212 123.685L72.1392 128.286C69.6933 129.974 67.0726 131.314 64.2772 132.304C62.8213 132.653 61.5401 133.003 60.4335 133.236C59.327 133.469 58.1041 133.585 56.7646 133.585H53.8527H46.5148H42.6712L39.0022 132.479L35.1586 130.848L31.3149 128.46C28.5195 126.364 26.1318 124.267 24.1517 122.054C21.7057 119.259 19.7257 116.347 18.095 113.435L14.7755 108.834L11.2813 105.165C10.0583 103.942 8.89354 103.011 7.72879 102.312C6.56405 101.613 5.28283 101.147 3.76866 100.739L3.59394 96.5462H10.9318C12.0384 97.3033 13.6108 97.8274 15.7073 98.1769L22.6375 98.9339C24.21 98.9339 25.6077 98.7592 26.8306 98.4098C28.0536 98.0603 29.5096 97.478 31.1984 96.7792C33.7609 95.6726 36.2651 93.9255 38.711 91.4796C41.157 89.0336 43.0788 86.2382 44.4765 83.1516C45.8742 80.065 46.5731 76.7455 46.5731 73.3677C46.5731 71.1547 46.4566 69.6406 46.2819 68.767C46.1072 67.8935 45.6995 66.6705 45.1171 65.0981C44.1271 62.5356 42.6712 59.9149 40.7493 57.2942C38.7693 54.6736 36.5563 52.4605 33.9938 50.597C31.4314 48.7916 28.2866 47.1027 24.5011 45.6468H0.915039V39.5901H8.25292H136.317V45.5886H136.433ZM99.2778 64.8069C97.1813 65.9134 95.143 67.6022 93.1629 69.8153C91.1246 72.0865 89.3775 74.8237 87.7468 78.1432C87.2809 79.3662 86.815 80.8803 86.4656 82.6275C86.1162 84.3746 85.9415 86.1217 85.9415 87.8688C85.9415 91.0136 86.5239 94.2167 87.6886 97.478C88.8534 100.681 90.6005 103.476 92.93 105.806C94.7353 107.786 96.7736 109.417 98.9866 110.756C101.2 111.863 103.471 112.561 105.917 112.969C107.256 112.969 108.421 112.794 109.469 112.445C110.518 112.096 111.682 111.513 113.022 110.814C115.118 109.708 117.215 108.077 119.311 105.864C121.466 103.651 123.155 100.914 124.553 97.6527C125.019 96.4297 125.485 94.9155 125.834 93.1684C126.183 91.4213 126.358 89.6742 126.358 87.927C126.358 84.3746 125.776 81.1133 124.611 78.1432C123.446 75.1731 121.641 72.3777 119.195 69.8153C117.39 67.7187 115.351 66.1464 113.138 64.9816C110.925 63.8169 108.538 63.0015 105.975 62.5356C103.879 62.7103 101.607 63.4674 99.2778 64.8069Z" fill="black"/>
<path d="M163.512 39.5901V45.4721H148.894V120.482L149.418 124.151C149.884 125.257 150.583 126.189 151.457 126.888L154.368 128.926L158.037 129.45V133.119H150.699H119.601V129.276C120.824 129.508 121.988 129.45 123.095 129.101C124.201 128.751 125.191 128.111 126.123 127.179C127.055 126.247 127.754 125.257 128.22 124.151L128.977 120.656V45.4721H115.233V39.5901H122.571H163.512Z" fill="black"/>
<path d="M255.18 45.4142H241.436V120.424L241.96 124.093C242.31 125.199 242.892 126.131 243.591 126.83L246.678 128.868L250.172 129.392V133.061H242.834H212.259V129.218C213.482 129.451 214.589 129.392 215.579 129.043C216.569 128.694 217.442 128.053 218.316 127.238L220.121 124.151L220.878 120.657V116.813C217.967 119.084 214.647 120.832 210.978 122.171C207.426 123.219 203.524 123.802 199.272 123.802H191.934C186.81 123.802 182.034 123.045 177.666 121.589C173.415 119.9 169.455 117.395 165.844 114.076C162.233 110.756 159.555 107.088 157.807 102.953C156.06 98.876 155.128 94.3918 155.128 89.4416C155.128 84.5497 156.002 80.1236 157.807 76.1635C159.555 72.2034 162.233 68.4179 165.786 64.8654L171.435 60.4394L177.666 57.2946L184.247 55.4893L191.934 54.7321H199.272C201.951 54.7321 204.688 55.0816 207.484 55.8387C210.163 56.3046 212.842 57.2946 215.521 58.7505L218.258 60.3812L220.82 62.0118V45.356H150.353V39.474H157.691H255.18V45.4142ZM208.707 113.668C211.735 112.096 214.763 109.941 217.675 107.262L179.297 75.6393L177.666 79.3083L176.56 82.6278L175.803 86.1221V89.4416C175.803 91.5382 175.919 93.2852 176.152 94.8577C176.385 96.3718 176.967 98.1189 177.783 100.099C179.239 103.127 181.452 106.097 184.364 108.893C186.46 110.989 188.964 112.737 191.876 114.192C192.75 114.542 193.74 114.95 194.905 115.299C196.069 115.648 197.933 116.172 200.495 116.755C201.485 116.522 202.708 116.173 204.223 115.648C205.737 115.008 207.251 114.367 208.707 113.668ZM220.937 72.7275C216.569 69.6991 212.725 67.3115 209.406 65.5643C206.086 63.8755 202.941 62.7107 199.913 62.0701C198.341 62.0701 197.059 62.1866 196.069 62.4195C195.079 62.6525 193.682 63.1766 191.76 63.8754C189.896 64.6325 188.207 65.7973 186.751 67.3697L220.995 97.5948V72.7275H220.937Z" fill="black"/>
<path d="M322.851 45.4142H285.696C289.714 46.5207 293.266 48.0931 296.411 50.0732C299.498 52.1115 302.235 54.3827 304.564 56.9452L307.884 61.313L310.097 65.3314L311.378 69.6992L311.902 74.6493C311.902 78.4348 311.087 81.929 309.456 85.0738C307.826 88.2186 305.147 91.3052 301.478 94.2171L296.004 97.7113L290.122 100.099C288.142 100.856 286.045 101.38 283.716 101.73L276.378 102.079C282.26 109.301 287.21 114.717 291.286 118.444C295.363 122.171 298.915 124.675 302.002 126.015L302.759 125.49H303.516L306.603 123.802L310.097 120.948L317.435 120.773L319.24 124.85C318.658 125.956 317.551 127.179 315.921 128.577L311.32 131.198L308.932 132.13L306.195 132.712L303.283 133.061H299.964H292.626C289.83 133.061 286.977 132.712 284.123 131.955C281.27 131.198 278.474 129.975 275.795 128.286C273.116 126.597 270.67 124.442 268.457 121.938C266.244 119.434 264.09 116.405 261.877 112.853C261.119 111.397 260.129 109.999 258.79 108.66L255.121 104.991C254.015 103.884 252.733 102.953 251.277 102.254L247.084 100.39V96.3718H254.422L259.547 97.8277L266.128 98.5849C267.933 98.5849 269.564 98.3519 270.903 97.9443C272.243 97.5366 273.582 97.0124 274.922 96.3718C277.484 95.2653 279.93 93.5765 282.318 91.247C284.706 88.9175 286.569 86.1803 287.909 83.0938C289.248 79.9489 289.947 76.5712 289.947 72.9022C289.947 69.3497 289.248 66.2632 287.909 63.526C286.686 60.6142 284.764 57.877 282.143 55.3728C279.522 52.8686 276.494 50.8302 273.116 49.1996C269.68 47.6272 265.604 46.346 260.886 45.356H246.094V39.474H253.432H322.967V45.4142H322.851Z" fill="black"/>
<path d="M428.027 45.3556H413.118V121.413C413.118 122.753 413.351 123.918 413.758 124.908C414.166 125.898 414.923 126.888 415.855 127.878L419 129.916H422.494V133.585H415.098H384.349V129.916C385.921 129.916 387.202 129.741 388.134 129.334C389.066 128.926 389.881 128.402 390.638 127.587C391.395 126.771 391.919 125.84 392.269 124.733L393.026 121.239V45.2974H349.173C353.949 46.1709 358.433 47.7433 362.626 50.0728C366.819 52.4023 370.546 55.4306 373.866 59.0996C377.185 62.7685 379.69 66.7869 381.437 71.0382C383.184 75.2895 383.999 79.7156 383.999 84.2581C383.999 88.9171 383.126 93.1684 381.437 97.0121C379.69 100.856 377.185 104.408 373.866 107.728L368.508 112.154L362.801 115.124L356.336 116.987H349.173H341.777C337.992 116.987 334.381 116.58 331.061 115.706C327.975 114.6 325.063 112.969 322.326 110.814C319.589 108.66 317.492 106.272 316.153 103.651C314.813 101.03 314.114 98.1768 314.114 95.0902C314.114 92.0037 314.697 89.1501 315.862 86.5294C317.026 83.9087 318.948 81.5209 321.685 79.4244C323.782 77.5608 326.402 76.0466 329.606 74.8236C332.809 73.6007 336.303 72.9601 340.088 72.9601H347.484C349.581 72.9601 351.677 73.3677 353.774 74.2413C354.531 74.4742 355.521 74.9402 356.744 75.5225C357.967 76.1631 359.015 76.7455 359.889 77.3861L360.471 77.9102L361.054 78.2597L362.16 79.1914L363.267 80.1233C363.267 76.3379 362.335 72.5524 360.53 68.8835C359.074 65.2728 356.802 61.895 353.716 58.6919C350.629 55.4889 346.96 52.577 342.651 49.9563C338.691 47.8598 334.265 46.2874 329.198 45.2974H310.387V39.4154H317.783H428.143V45.3556H428.027ZM346.378 110.931L349.115 107.961C350.222 106.272 351.153 104.35 351.852 102.253C352.202 100.681 352.493 99.5163 352.609 98.7592C352.726 98.0021 352.784 96.7791 352.784 95.0902C352.784 92.4113 352.493 90.1401 351.852 88.2765C351.386 86.0635 350.454 84.0252 349.115 82.2198C348.358 81.1133 347.484 80.1815 346.378 79.4826L343.641 77.6191L340.671 79.4826L337.933 82.2198C336.827 84.0834 335.953 86.0635 335.255 88.2765C334.556 90.4895 334.264 92.7608 334.264 95.0902C334.264 97.7692 334.614 100.157 335.255 102.079C335.953 104.059 336.885 106.039 338.108 107.961L340.671 110.931L343.641 112.561C344.864 112.096 345.796 111.571 346.378 110.931Z" fill="black"/>
<path d="M460.817 39.4154V45.2974H446.083V120.831L446.665 124.5C447.131 125.607 447.83 126.538 448.703 127.237L451.673 129.276L455.342 129.858V133.527H447.946H416.614V129.683C417.837 129.916 419.002 129.858 420.109 129.508C421.215 129.159 422.205 128.518 423.137 127.587C424.069 126.655 424.768 125.665 425.234 124.558L425.991 121.064V45.3556H412.188V39.4736H419.585H460.817V39.4154Z" fill="black"/>
<path d="M548.519 45.3558H534.716V121.064L535.24 124.733C535.59 125.84 536.231 126.83 537.104 127.703L539.841 129.567L543.51 130.091V133.585H536.114H505.132V129.916L506.995 130.091H508.626L509.907 129.334L511.363 127.995L513.227 124.908L513.984 121.239V116.988C511.014 119.375 507.578 121.181 503.676 122.404C499.716 123.627 495.872 124.209 492.087 124.209H484.691C479.507 124.209 474.732 123.452 470.306 121.996C466.113 120.424 462.269 117.92 458.775 114.6C455.281 111.28 452.485 107.495 450.389 103.185C448.642 98.9924 447.826 94.4499 447.826 89.5579C447.826 84.5495 448.7 80.0653 450.505 76.2216C452.311 72.3779 454.931 68.709 458.425 65.3312C461.92 61.9535 465.938 59.391 470.481 57.5857C475.023 55.7803 479.74 54.9068 484.691 54.9068H492.087C494.766 54.9068 497.561 55.2562 500.356 56.0133C503.21 56.4792 505.947 57.4109 508.626 58.7504L511.363 60.3811L513.926 62.0117V45.2394H442.818V39.3574H450.214H548.519V45.3558ZM503.385 113.144C506.821 111.048 510.373 108.194 514.042 104.467V74.4162C512.703 72.8438 510.897 71.2132 508.684 69.6408L502.628 65.3895L497.852 63.3512C493.717 62.3029 489.349 62.6523 485.448 64.3995C485.156 64.5159 484.865 64.6906 484.574 64.8071C482.128 65.9136 479.624 67.6607 477.003 69.9902C474.382 72.3197 472.286 75.2898 470.539 78.8423C469.199 82.1618 468.501 85.7143 468.501 89.5579C468.501 91.6545 468.617 93.4599 468.85 94.974C469.083 96.4882 469.665 98.2353 470.481 100.215C471.937 103.418 474.091 106.447 476.945 109.242C479.158 111.339 481.72 113.028 484.691 114.425C485.564 114.775 486.554 115.182 487.719 115.532C488.884 115.881 490.747 116.405 493.368 116.988C495.057 116.755 496.746 116.289 498.318 115.707C500.007 115.124 501.638 114.251 503.385 113.144Z" fill="black"/>
<path d="M522.838 90.3731C522.838 105.922 510.492 118.152 494.768 118.094C479.801 118.036 467.222 105.398 467.164 90.3149C467.164 74.9402 479.801 62.4192 495.234 62.4192C510.609 62.4774 522.838 74.9402 522.838 90.3731ZM471.531 90.2566C471.531 103.302 482.072 114.017 494.943 114.017C507.871 114.076 518.704 103.36 518.704 90.6061C518.704 77.2697 508.104 66.4958 495.001 66.554C482.072 66.6123 471.59 77.2114 471.531 90.2566Z" fill="black"/>
<path d="M406.538 18.9161C406.538 16.5283 407.003 14.1989 407.935 11.9859C408.925 9.65639 410.265 7.67631 412.07 5.92919C413.701 4.35679 415.623 3.07555 417.719 2.20199C419.525 1.44491 421.388 1.03722 423.368 0.862505C424.999 0.74603 426.571 0.862505 428.144 1.15369C430.298 1.56135 432.278 2.37673 434.084 3.54148C436.122 4.8227 437.869 6.45329 439.209 8.43335C440.257 9.88929 441.072 11.4617 441.596 13.2089C442.179 14.956 442.47 16.7613 442.528 18.5667C442.586 19.9644 442.47 21.4203 442.179 22.7598C441.596 25.3222 440.606 27.6517 439.034 29.7483C438.452 30.5636 437.811 31.3206 437.054 31.9612C436.297 32.7183 435.365 33.126 434.259 33.126C433.501 33.126 432.803 32.8348 432.162 32.3689C430.997 31.4954 429.774 30.8548 428.435 30.3889C426.921 29.923 425.406 29.7482 423.834 29.8065C422.495 29.8647 421.213 30.1559 419.99 30.6218C418.826 31.0295 417.719 31.6701 416.787 32.4272C415.448 33.4754 413.468 33.359 412.187 32.136C410.265 30.3306 408.809 28.1758 407.819 25.7299C407.236 24.2157 406.771 22.6433 406.654 21.0709C406.596 20.372 406.538 19.6732 406.538 18.9161Z" fill="#F00026"/>
<path d="M433.617 18.5087C433.617 21.537 432.802 23.75 430.997 25.5554C429.774 26.7784 428.318 27.5355 426.629 27.8267C424.474 28.2343 422.377 28.0596 420.397 27.0695C418.709 26.2542 417.486 24.973 416.612 23.2841C415.855 21.8864 415.564 20.3723 415.622 18.7999C415.738 15.6551 417.02 13.0926 419.699 11.2873C420.922 10.4719 422.261 10.1226 423.659 9.94784C424.998 9.83137 426.338 9.94781 427.619 10.3555C429.308 10.9378 430.705 11.9279 431.812 13.3838C432.918 14.898 433.617 16.8781 433.617 18.5087Z" fill="white"/>
</svg>
