<svg width="40" height="40" viewBox="0 0 40 40" fill="none" xmlns="http://www.w3.org/2000/svg">
<rect x="0.5" y="0.5" width="39" height="39" rx="19.5" stroke="#15876B"/>
<path d="M20.8334 15.8491C20.8334 15.4089 21.0085 14.9868 21.3197 14.6755C21.6311 14.3642 22.0532 14.1891 22.4934 14.1891H24.1534V12.5291H22.4934C21.6129 12.5291 20.7687 12.8792 20.1461 13.5018C19.5234 14.1244 19.1734 14.9686 19.1734 15.8491V18.3391C19.1734 18.7975 18.8018 19.1691 18.3434 19.1691H16.6834V20.8291H18.3434C18.8018 20.8291 19.1734 21.2007 19.1734 21.6591V27.4691H20.8334V21.6591C20.8334 21.2007 21.205 20.8291 21.6634 20.8291H23.5058L23.9208 19.1691H21.6634C21.205 19.1691 20.8334 18.7975 20.8334 18.3391V15.8491ZM22.4934 17.5091H24.9834C25.239 17.5091 25.4803 17.627 25.6376 17.8285C25.7948 18.0299 25.8502 18.2923 25.7883 18.5402L24.9583 21.8602C24.8659 22.2297 24.5343 22.4891 24.1534 22.4891L22.4934 22.4891V28.2991C22.4934 28.7575 22.1218 29.1291 21.6634 29.1291L18.3434 29.1291C17.885 29.1291 17.5134 28.7575 17.5134 28.2991V22.4891H15.8534C15.395 22.4891 15.0234 22.1175 15.0234 21.6591L15.0234 18.3391L15.0275 18.254C15.0701 17.8356 15.4238 17.5091 15.8534 17.5091H17.5134V15.8491C17.5134 14.5284 18.0385 13.2621 18.9724 12.3281C19.9063 11.3942 21.1727 10.8691 22.4934 10.8691L24.9834 10.8691L25.0685 10.8732C25.487 10.9158 25.8134 11.2695 25.8134 11.6991V15.0191C25.8134 15.4775 25.4418 15.8491 24.9834 15.8491H22.4934V17.5091Z" fill="#15876B"/>
</svg>
