<svg width="42" height="42" viewBox="0 0 42 42" fill="none" xmlns="http://www.w3.org/2000/svg">
<rect x="0.558823" y="0.558823" width="40.8824" height="40.8824" rx="20.4412" fill="#15876B" stroke="#15876B" stroke-width="0.882353"/>
<path d="M28.1006 14.9378C28.5218 14.6821 28.8046 14.2217 28.8046 13.6952C28.8046 12.8918 28.1487 12.236 27.3454 12.236H25.9855L23.3168 9.19114C23.3378 9.07982 23.3499 8.97451 23.3499 8.86921V7.0459C23.3499 5.91766 22.3901 5 21.2107 5C20.0313 5 19.0685 5.91766 19.0685 7.0459V8.86921C19.0685 8.97451 19.0836 9.07982 19.1016 9.19114L16.4329 12.236H15.073C14.2666 12.236 13.6138 12.8919 13.6138 13.6952C13.6138 14.2217 13.8966 14.682 14.3178 14.9378C13.5235 15.4764 13 16.373 13 17.3899V32.0213C13 33.6641 14.3599 35 16.0298 35H26.3856C28.0555 35 29.4154 33.6641 29.4154 32.0213L29.4184 17.3899C29.4184 16.373 28.8949 15.4763 28.1006 14.9378ZM19.8113 9.55516C19.8203 9.54312 19.8233 9.53109 19.8324 9.51905C19.8474 9.49799 19.8594 9.47693 19.8685 9.45587C19.8805 9.4318 19.8865 9.40773 19.8925 9.38366C19.8986 9.35959 19.9016 9.33853 19.9016 9.31446C19.9016 9.28738 19.8986 9.26331 19.8956 9.23623C19.8925 9.2242 19.8956 9.20915 19.8925 9.19712C19.8564 9.07376 19.8414 8.96845 19.8414 8.87217V7.04586C19.8414 6.34182 20.4582 5.7702 21.2133 5.7702C21.9685 5.7702 22.5823 6.34186 22.5823 7.04586V8.86917C22.5823 8.96545 22.5672 9.07075 22.5311 9.19412C22.5281 9.20916 22.5311 9.22119 22.5281 9.23323C22.5221 9.2573 22.5221 9.28137 22.5221 9.30845C22.5221 9.33252 22.5251 9.35659 22.5311 9.38367C22.5372 9.40774 22.5432 9.42879 22.5522 9.44986C22.5642 9.47393 22.5763 9.498 22.5913 9.51906C22.6003 9.53109 22.6033 9.54313 22.6094 9.55216L24.9622 12.236H17.4584L19.8113 9.55516ZM15.0756 13.0062H27.3424C27.7215 13.0062 28.0314 13.3161 28.0314 13.6952C28.0314 14.0743 27.7215 14.3842 27.3424 14.3842H15.0725C14.6934 14.3842 14.3835 14.0743 14.3835 13.6952C14.3865 13.3161 14.6965 13.0062 15.0756 13.0062ZM28.6479 32.0218C28.6479 33.2403 27.634 34.2302 26.3884 34.2302H16.0325C14.7869 34.2302 13.773 33.2403 13.773 32.0218V27.9449H16.9412C17.1548 27.9449 17.3263 27.7734 17.3263 27.5598C17.3263 27.3462 17.1548 27.1747 16.9412 27.1747H13.773V24.5752H16.9412C17.1548 24.5752 17.3263 24.4037 17.3263 24.19C17.3263 23.9764 17.1548 23.8049 16.9412 23.8049H13.773V21.2024H16.9412C17.1548 21.2024 17.3263 21.0309 17.3263 20.8172C17.3263 20.6036 17.1548 20.4321 16.9412 20.4321H13.773V17.3903C13.773 16.1718 14.7869 15.1819 16.0325 15.1819H26.3884C27.634 15.1819 28.6479 16.1718 28.6479 17.3903V32.0218Z" fill="#F8F6F2"/>
</svg>
