<svg width="42" height="42" viewBox="0 0 42 42" fill="none" xmlns="http://www.w3.org/2000/svg">
<rect x="0.558823" y="0.558823" width="40.8824" height="40.8824" rx="20.4412" fill="#15876B" stroke="#15876B" stroke-width="0.882353"/>
<path d="M25.5773 16.0798C26.5771 15.6799 27.7018 15.205 28.4516 13.7304C28.9015 12.8306 29.0765 11.9058 28.9765 10.9311C28.7515 8.90657 27.3019 7.207 25.2524 6.60735C23.7278 6.15746 22.1282 5.95751 20.5036 6.0075C12.6304 6.25744 6.25716 12.6306 6.00723 20.5039C5.88226 24.6028 7.38188 28.4771 10.231 31.4259C13.0553 34.3752 16.8793 36 20.9783 36C28.9515 36 35.6746 29.5016 35.9497 21.5284C36.1247 16.6048 33.8753 11.906 29.9264 8.98155C29.7015 8.8066 29.4016 8.85659 29.2266 9.08153C29.0517 9.30647 29.1017 9.6064 29.3266 9.78135C33.0007 12.5307 35.1004 16.9044 34.95 21.5032C34.7001 28.9514 28.4268 34.9999 20.9783 34.9999C17.1542 34.9999 13.5801 33.5002 10.9308 30.7509C8.25646 28.0016 6.85661 24.3773 6.98178 20.5535C7.23172 13.2053 13.1554 7.25679 20.5032 7.00685C22.0028 6.95686 23.5025 7.15681 24.9521 7.5817C26.6017 8.08158 27.8014 9.43124 27.9763 11.0558C28.0513 11.8306 27.9263 12.5805 27.5514 13.2803C26.9766 14.43 26.1518 14.7549 25.177 15.1548C24.2023 15.5547 23.1275 16.0046 22.3527 17.3543C22.0778 17.1543 21.7529 17.0543 21.403 17.0043C20.9281 14.0301 18.3038 11.7557 15.2293 11.7557C11.7802 11.7557 8.98088 14.555 8.98088 18.0041C8.98088 20.3035 10.2306 22.3278 12.0801 23.4027C12.405 25.7522 13.9796 32.1758 21.153 33.0004C21.6029 33.0503 22.0278 33.0753 22.4277 33.0753C24.3522 33.0753 25.8019 32.5005 26.7514 31.3508C27.7762 30.1261 28.0011 28.4515 27.9511 27.0018H28.576C29.1008 27.0018 29.6007 26.8019 30.0006 26.427L32.3001 24.1276C32.65 23.7777 32.8499 23.2778 32.8499 22.7779C32.8499 22.278 32.65 21.7782 32.3001 21.4282C31.5502 20.6784 30.3505 20.6784 29.6007 21.4282L29.2008 21.8281L27.2763 19.9036C26.7264 19.3538 25.9766 19.0288 25.1768 19.0288C24.427 19.0288 23.7272 19.3288 23.2023 19.7787V19.0288C23.2023 18.7289 23.1273 18.454 23.0274 18.204C23.6772 16.8544 24.552 16.5045 25.5767 16.0796L25.5773 16.0798ZM9.98123 18.0043C9.98123 15.105 12.3306 12.7556 15.2299 12.7556C17.8043 12.7556 20.0039 14.6801 20.4038 17.1793C19.704 17.5042 19.2291 18.204 19.2291 19.0038V21.4032C18.2294 22.578 16.7797 23.2528 15.2301 23.2528C12.3308 23.2528 9.98123 20.9036 9.98123 18.0043ZM25.2022 20.0038C25.7271 20.0038 26.227 20.2037 26.6019 20.5787L28.5264 22.5032C28.9263 22.9031 29.5511 22.9031 29.951 22.5032L30.3509 22.1033C30.7008 21.7534 31.2757 21.7534 31.6506 22.1033C31.8256 22.2782 31.9255 22.5032 31.9255 22.7531C31.9255 23.003 31.8256 23.228 31.6506 23.4029L29.3512 25.7024C29.1512 25.9023 28.9013 26.0023 28.6514 26.0023H27.9265C27.7766 24.8276 27.5266 23.9278 27.4767 23.8528C27.4017 23.5779 27.1017 23.4529 26.8518 23.5279C26.5769 23.6029 26.4519 23.9028 26.5269 24.1528C26.5519 24.2027 27.8766 28.4765 26.027 30.7263C25.1272 31.826 23.5276 32.2759 21.3034 32.001C15.4549 31.3262 13.7053 26.6271 13.2054 23.903C13.8553 24.128 14.5301 24.2529 15.2549 24.2529C16.7295 24.2529 18.1292 23.7281 19.2539 22.8033V23.0032C19.2539 23.2782 19.4789 23.5031 19.7538 23.5031C20.0287 23.5031 20.2537 23.2782 20.2537 23.0032V19.0042C20.2537 18.4544 20.7036 18.0045 21.2534 18.0045C21.8033 18.0045 22.2532 18.4544 22.2532 19.0042V23.6031C22.2532 24.2279 21.8533 24.8028 21.2784 25.0027L17.1043 26.5274C16.8543 26.6273 16.7044 26.9023 16.8043 27.1772C16.8793 27.3772 17.0793 27.5021 17.2792 27.5021C17.3292 27.5021 17.4042 27.5021 17.4542 27.4771L21.6283 25.9525C21.8533 25.8775 22.0782 25.7526 22.2782 25.6026V26.7523C22.2782 27.0272 22.5031 27.2522 22.778 27.2522C23.053 27.2522 23.2779 27.0272 23.2779 26.7523V21.9783C23.2279 20.8786 24.1025 20.0038 25.2022 20.0038Z" fill="#F8F6F2"/>
</svg>
