<svg width="42" height="43" viewBox="0 0 42 43" fill="none" xmlns="http://www.w3.org/2000/svg">
<rect x="0.558823" y="1.05882" width="40.8824" height="40.8824" rx="20.4412" fill="#15876B" stroke="#15876B" stroke-width="0.882353"/>
<path d="M36.0555 19.1439C36.0492 19.1224 36.0492 19.0996 36.0555 19.0793C36.3154 18.0827 36.2 17.0252 35.7309 16.1084C35.2567 15.1967 34.4959 14.4664 33.5664 14.0277C33.5487 14.02 33.5335 14.0061 33.5233 13.9896C32.1374 11.7174 30.465 10.7244 27.9405 10.7244L27.8758 10.7232C27.8492 10.7232 27.8238 10.713 27.8048 10.694C26.7587 9.63145 25.3348 9.02535 23.8437 9.00633C23.2985 9.00633 22.7558 9.09509 22.2372 9.2688L21.9544 9.36897C21.7731 9.43364 21.5842 9.50211 21.3965 9.55409L21.3838 9.55536H21.3445C20.5774 9.20541 19.7468 9.01646 18.9037 9H18.5981C17.3973 9.09383 15.7185 9.75318 14.9856 10.694C14.9666 10.7181 14.9387 10.7321 14.9082 10.7333C14.7523 10.7131 14.595 10.7042 14.4378 10.7042C12.6081 10.7486 10.9117 11.6679 9.87325 13.1742C9.40284 13.9046 9.3052 13.9629 8.98439 14.1645C8.75996 14.304 8.54313 14.4549 8.33519 14.6184C7.30052 15.3906 6.54734 16.4811 6.19229 17.7224C5.91207 18.785 5.9387 19.9046 6.26837 20.9532C6.59804 22.0019 7.2181 22.9351 8.05622 23.6464C8.87785 24.3261 9.90999 24.6976 10.9776 24.6976C11.5368 24.6938 12.0922 24.5974 12.6197 24.4123C12.6298 24.4098 12.6412 24.4098 12.6526 24.4123C12.6793 24.411 12.7046 24.4212 12.7236 24.4415C13.7748 25.4863 14.7562 25.9732 15.8074 25.9732C16.3424 25.9694 16.8725 25.8591 17.3657 25.6486H17.405H17.4038C17.4177 25.6461 17.4329 25.6461 17.4469 25.6486C17.471 25.66 17.4887 25.679 17.4989 25.7044C18.1481 27.4643 19.4465 28.5637 21.0695 28.7234C21.7605 28.7919 22.4135 28.8566 23.0501 29.3727C24.1444 30.2754 24.7187 31.551 25.2741 32.781C25.5049 33.2907 25.742 33.8131 26.0083 34.2899H26.0057C26.2644 34.721 26.7247 34.9885 27.2268 34.9999C27.8151 35.0063 28.3185 34.5815 28.4111 34.0008C28.3959 33.6153 28.302 33.2387 28.1359 32.89C27.786 31.9162 27.3054 30.6178 28.2944 29.9686C28.4707 29.8646 28.6748 29.8164 28.879 29.8291C29.0717 29.8342 29.2632 29.8481 29.4534 29.8748C29.6144 29.8963 29.7754 29.909 29.9377 29.9141H30.0087C31.0358 29.8595 31.9957 29.3917 32.6702 28.6157C33.3537 27.8333 33.8342 26.8963 34.0726 25.8857C34.0827 25.8527 34.1056 25.8274 34.1373 25.8147C35.1884 25.518 36.0532 24.7711 36.5008 23.7758C37.0232 22.5395 36.8607 20.8508 36.0555 19.1439ZM35.4418 24.013C35.0031 24.6571 34.274 25.0413 33.4942 25.0388C32.0462 25.0388 30.5537 23.838 30.167 22.357C30.1429 22.2404 30.1239 22.1224 30.1125 22.0033C30.077 21.718 30.0415 21.3934 29.85 21.2628L29.8488 21.2641C29.7866 21.2222 29.7131 21.2019 29.6383 21.2019C29.5089 21.1969 29.3872 21.2577 29.3137 21.3642C29.1678 21.6077 29.3492 22.2569 29.4595 22.6461L29.528 22.8997C29.5381 22.9467 29.514 22.9936 29.4696 23.0126C28.9434 23.2218 28.3881 23.3486 27.8238 23.3892C26.6649 23.535 25.5706 23.6745 24.9417 25.2684C24.7794 25.6779 24.6399 26.1864 24.7337 26.388V26.3892C24.8073 26.5274 24.9506 26.6149 25.1065 26.6162C25.1686 26.6162 25.2282 26.601 25.2828 26.5706C25.4387 26.4856 25.4742 26.265 25.5097 26.0545C25.5211 25.9772 25.5351 25.8998 25.5554 25.8237C25.9675 24.3402 27.0909 24.2007 28.175 24.0803V24.0815C28.7367 24.0511 29.287 23.9129 29.798 23.6758C29.8145 23.672 29.8323 23.672 29.8487 23.6758H29.8754C29.902 23.6834 29.9236 23.6999 29.9375 23.724C30.5867 25.0034 32.0436 25.6361 33.1835 25.8047C33.2114 25.8073 33.2368 25.8225 33.2507 25.8466C33.2621 25.8732 33.2621 25.9024 33.2507 25.9277C32.8741 27.4797 31.5466 29.1319 29.8525 29.1319H29.8233C29.6217 29.1319 29.4302 29.1091 29.2489 29.0901C29.0777 29.0685 28.9053 29.0571 28.7329 29.0546C28.4057 29.0431 28.0849 29.1433 27.8237 29.3399C26.6648 30.1805 26.8854 32.1281 27.4078 33.2351C27.4269 33.2706 27.4471 33.3124 27.47 33.3517C27.5993 33.5293 27.6488 33.7524 27.6069 33.968C27.5422 34.0986 27.4231 34.1949 27.2823 34.2279C27.2341 34.2444 27.1859 34.2533 27.1352 34.2545C26.694 34.2545 26.4214 33.5533 26.2426 33.0931C26.2071 32.9992 26.1741 32.9181 26.1487 32.8661C26.1234 32.8141 26.0549 32.6645 26.0055 32.5605C25.1521 30.7549 23.9805 28.2495 21.8515 27.996C20.0244 27.7753 19.19 27.6714 18.2809 25.5716C18.2327 25.4574 18.1934 25.3446 18.1541 25.247V25.2305C18.1414 25.1912 18.1541 25.1481 18.1858 25.1227C18.3595 24.9667 18.5244 24.8006 18.6803 24.6269C18.9035 24.3683 19.1571 24.1375 19.436 23.9384C19.8798 23.6455 20.3984 23.4883 20.9297 23.4845C21.4432 23.482 21.9491 23.6176 22.3929 23.8763C22.4754 23.9283 22.5527 23.9853 22.6262 24.0487C22.7404 24.1616 22.8811 24.2427 23.0358 24.2858C23.0599 24.2884 23.084 24.2884 23.1068 24.2858C23.2488 24.2947 23.3807 24.211 23.4314 24.0779C23.4961 23.9321 23.4682 23.7634 23.3604 23.6468C22.7454 23.0204 21.8959 22.6831 21.0197 22.7148C20.1347 22.6958 19.275 23.0052 18.6055 23.5847C18.4685 23.7077 18.3367 23.8471 18.2099 23.9803H18.2086C18.0615 24.1439 17.9055 24.2986 17.742 24.4444C17.2348 24.9275 16.5653 25.1988 15.8654 25.2077C14.9436 25.2077 13.9951 24.7043 13.1975 23.7863C12.9249 23.4465 12.8412 22.9926 12.9731 22.5779C13.1113 22.0568 13.4917 21.6333 13.9951 21.4393L14.0927 21.4063C14.3235 21.3378 14.7089 21.2212 14.7584 21.0335C14.7812 20.9397 14.7229 20.8192 14.586 20.6798C14.5074 20.6037 14.3996 20.5657 14.2905 20.572C13.81 20.572 13.0505 21.0754 12.7943 21.348C12.1679 22.0162 12.1451 22.7047 12.1806 23.6012C12.1819 23.6405 12.1591 23.6773 12.1223 23.695C11.7977 23.8434 11.4414 23.9157 11.0838 23.9055C10.8835 23.9042 10.6844 23.889 10.4866 23.8611C9.37839 23.6938 8.38176 23.0915 7.71737 22.1887C6.92868 21.116 6.59648 19.7732 6.793 18.4558C6.9946 17.1218 7.78583 15.9211 9.1489 14.9143C9.16665 14.9017 9.18694 14.8953 9.20723 14.8953H9.244C9.27443 14.908 9.29725 14.9346 9.30486 14.9663C9.57747 16.0504 10.6426 16.706 11.0902 16.9393V16.9406C11.1358 16.9634 11.1548 17.0166 11.1358 17.0636C11.042 17.3108 10.8442 17.8231 10.99 18.0703C11.0509 18.1604 11.1523 18.2162 11.2626 18.2187H11.3501C11.5974 18.2187 11.6455 18.0501 11.7102 17.7546C11.728 17.6595 11.7521 17.5644 11.7825 17.4719C12.05 16.7706 12.731 16.3129 13.4829 16.3294C13.9279 16.3345 14.3578 16.5006 14.69 16.7973C14.9271 17.0014 15.1122 17.1929 15.2771 17.3654H15.2783C15.7285 17.9435 16.4069 18.2986 17.1385 18.3392C17.1702 18.343 17.1993 18.362 17.2158 18.3911C17.2323 18.4203 17.2323 18.4558 17.2158 18.485C16.8608 19.1583 16.8101 19.9508 17.0763 20.6634C17.174 20.9486 17.368 21.2796 17.6051 21.2796C17.6824 21.277 17.7572 21.2491 17.8194 21.2022C18.0501 21.0399 17.969 20.7965 17.8194 20.4389C17.7763 20.3463 17.7408 20.2487 17.7129 20.1498C17.5683 19.7098 17.6457 19.2267 17.9195 18.8514C18.3113 18.4025 18.8858 18.1553 19.4817 18.1832C19.7518 18.1832 20.0206 18.2275 20.2767 18.3138C20.3566 18.3442 20.4339 18.3784 20.51 18.4165C20.6115 18.4761 20.7205 18.5192 20.8346 18.5433H20.8841C21.0717 18.5407 21.2315 18.4038 21.2632 18.2187C21.2987 17.9524 20.9386 17.6899 20.3414 17.5175C20.0561 17.4414 19.7607 17.4046 19.4652 17.4071C19.1254 17.4148 18.7856 17.4414 18.4496 17.4883C18.1415 17.5352 17.8321 17.5631 17.5214 17.5694C17.2691 17.5732 17.0193 17.5377 16.7771 17.4655C16.2953 17.2918 15.8692 16.9925 15.5408 16.5994C15.1997 16.181 14.7509 15.8627 14.2424 15.6802C14.0104 15.6092 13.7682 15.5736 13.5248 15.5736C12.835 15.5838 12.1705 15.8361 11.6456 16.285C11.6291 16.3002 11.6063 16.3078 11.5835 16.3065C11.5695 16.3103 11.5556 16.3103 11.5416 16.3065C10.6718 15.8945 10.1367 15.2947 9.97441 14.525C9.96933 14.5085 9.96933 14.4895 9.97441 14.473C10.5818 12.6941 12.7855 11.4996 14.4604 11.4996H14.6975C15.6548 11.9612 15.9186 12.798 16.0936 13.3826H16.0923C16.1278 13.5715 16.2052 13.7515 16.3167 13.9088C16.3865 13.9747 16.4778 14.0128 16.5729 14.0153C16.6654 14.014 16.7529 13.9722 16.8138 13.9012C16.9114 13.7782 16.9533 13.6197 16.9266 13.4637C16.7745 12.6091 16.3269 11.8356 15.6612 11.279C15.6384 11.2638 15.6244 11.2384 15.6219 11.2105C15.6181 11.1839 15.627 11.156 15.6447 11.1357C16.313 10.328 17.7128 9.76246 19.0466 9.76246C19.6869 9.73963 20.3184 9.90954 20.861 10.2494C20.9003 10.276 20.9155 10.3267 20.8965 10.3698C20.4464 11.6162 20.5453 12.9958 21.1691 14.1647C21.5267 14.7455 22.0555 15.2032 22.6819 15.4733C23.5846 15.8562 24.2808 16.6056 24.5965 17.5338C24.651 17.6923 24.7968 17.8026 24.9642 17.8102C25.0644 17.8127 25.1595 17.762 25.214 17.677C25.2825 17.5794 25.3636 17.3524 25.1658 16.8554C24.7119 15.7548 23.9485 15.3262 23.2182 14.9078C22.588 14.5502 21.9908 14.2167 21.6763 13.4953H21.6751C21.2833 12.4644 21.3036 11.3219 21.7334 10.305C21.7435 10.2797 21.7638 10.2594 21.7892 10.2492L21.8995 10.2036V10.2049C22.5221 9.90942 23.1979 9.74204 23.8864 9.71415C25.4574 9.71415 26.236 10.3152 27.1656 11.1356H27.1643C27.1858 11.1533 27.1998 11.1799 27.2011 11.2078C27.2011 11.2357 27.1896 11.2624 27.1706 11.2826C26.7421 11.7074 25.8887 13.0908 26.0802 13.7628V13.7615C26.136 13.9302 26.2767 14.0544 26.4504 14.0861C26.7192 14.0088 26.8041 13.7362 26.931 13.2683C27.0806 12.704 27.2556 11.9952 28.0544 11.5083V11.5096C28.0696 11.5007 28.0861 11.4944 28.1026 11.4931H28.2484C30.0236 11.5096 31.6655 12.4314 32.6052 13.9378L32.6826 14.0709C32.9488 14.5388 32.9488 14.5388 33.3546 14.7683L33.5917 14.9014C34.5503 15.5265 35.2172 16.5105 35.4455 17.6314C35.571 18.188 35.4366 18.7713 35.079 19.2151C34.8571 19.5093 34.5148 19.6868 34.1471 19.6995C33.6475 19.6995 33.1732 19.352 32.7675 19.0756C31.8571 18.4391 30.7717 18.0993 29.6609 18.1018H29.2615C29.2336 18.1132 29.2007 18.112 29.174 18.0955C29.1525 18.0726 29.1436 18.0384 29.1512 18.008C29.3883 17.2408 29.3516 16.4167 29.0472 15.6736C28.9838 15.491 28.8241 15.3592 28.6314 15.3325C28.5705 15.3338 28.5109 15.349 28.4564 15.3782C28.2548 15.4784 28.2979 15.7256 28.3917 16.1859C28.5477 16.9416 28.7848 18.0815 27.5028 19.1948V19.1961C26.9259 19.721 26.1651 19.9987 25.3853 19.9683C25.1127 19.9683 24.8401 19.9492 24.551 19.9264C24.2619 19.9036 24.0083 19.8871 23.7205 19.8808H23.6723C22.9838 19.8808 21.4191 20.1052 21.2086 20.7633C21.286 21.0879 21.4191 21.1437 21.5332 21.1437C21.7386 21.1183 21.939 21.0562 22.1241 20.9611H22.166C22.6617 20.7456 23.1968 20.6352 23.737 20.6365C24.0616 20.6365 24.3862 20.6695 24.6854 20.6986C24.9771 20.7354 25.27 20.7557 25.5641 20.7608C26.3946 20.7608 27.3456 20.5528 28.6669 19.0528H28.6681C28.6795 19.0376 28.6973 19.0275 28.7163 19.0236C29.032 18.9285 29.3605 18.8816 29.6901 18.8842C30.5625 18.9045 31.4133 19.1593 32.1538 19.6209L32.2248 19.6665C32.9032 20.0849 33.4902 20.4489 34.1141 20.4489C34.606 20.426 35.0752 20.2396 35.448 19.9201C35.4658 19.9074 35.486 19.8998 35.5076 19.8998H35.5368C35.5659 19.91 35.59 19.9328 35.6014 19.962C36.2595 21.6433 36.205 22.9645 35.4417 24.0234L35.4418 24.013Z" fill="#F8F6F2"/>
</svg>
