<svg width="42" height="42" viewBox="0 0 42 42" fill="none" xmlns="http://www.w3.org/2000/svg">
<rect x="0.558823" y="0.558823" width="40.8824" height="40.8824" rx="20.4412" fill="#15876B" stroke="#15876B" stroke-width="0.882353"/>
<path d="M15.6128 9.00003C14.8263 9.00003 14.1799 9.64436 14.1799 10.4308V12.7871C14.1799 13.5082 14.7236 14.1111 15.4198 14.2065V15.1735C15.4198 15.74 15.148 16.2682 14.6873 16.5981L13.1818 17.6772C12.4399 18.2084 12 19.0654 12 19.9785V31.7827C12 33.0029 12.9971 34 14.2173 34H28.7669C29.9871 34 30.9842 33.0029 30.9842 31.7827V19.9774C30.9842 19.0644 30.5443 18.2084 29.8014 17.6761L28.3 16.5981C27.8394 16.2681 27.5675 15.74 27.5675 15.1735V14.2065C28.2627 14.11 28.8054 13.5072 28.8054 12.7871V10.4308C28.8054 9.64433 28.1589 9 27.3715 9L15.6128 9.00003ZM15.6128 9.78234H27.3716C27.7399 9.78234 28.0232 10.0646 28.0232 10.4308V12.7871C28.0232 13.1534 27.7399 13.4387 27.3716 13.4387L15.6128 13.4377C15.2444 13.4377 14.9612 13.1523 14.9612 12.7861V10.4298C14.9612 10.0635 15.2444 9.78131 15.6128 9.78131V9.78234ZM16.2011 14.2189H26.7864V15.1735C26.7864 15.9911 27.1796 16.7599 27.8447 17.2351L29.3471 18.31C29.8244 18.6514 30.1284 19.1785 30.1906 19.7554H12.7938C12.8561 19.1785 13.1601 18.6525 13.6374 18.31L15.1398 17.2351C15.8038 16.7599 16.2002 15.9901 16.2002 15.1735L16.2011 14.2189ZM12.7823 20.5366H30.203V29.4637H12.7823V20.5366ZM21.4927 22.1417C21.2779 22.1428 21.1036 22.3171 21.1036 22.5318V24.608H19.0243C18.9206 24.607 18.821 24.6485 18.7473 24.7221C18.6736 24.7958 18.6321 24.8954 18.6321 25.0002C18.6331 25.104 18.6747 25.2025 18.7483 25.2762C18.822 25.3488 18.9216 25.3893 19.0243 25.3893H21.1036V27.4655V27.4644C21.1036 27.5682 21.144 27.6678 21.2167 27.7415C21.2903 27.8151 21.3889 27.8566 21.4927 27.8566C21.5964 27.8577 21.6971 27.8162 21.7708 27.7425C21.8444 27.6688 21.8849 27.5692 21.8849 27.4644V25.3883H23.9642V25.3893C24.1779 25.3883 24.3522 25.215 24.3532 25.0002C24.3532 24.8965 24.3128 24.7969 24.2391 24.7232C24.1665 24.6495 24.0669 24.608 23.9641 24.608H21.8849V22.5319C21.8849 22.4281 21.8434 22.3285 21.7697 22.2559C21.696 22.1822 21.5964 22.1417 21.4927 22.1417ZM12.7823 30.2419H30.203V31.7817C30.203 32.5795 29.5659 33.2187 28.767 33.2187L14.2174 33.2177C13.4195 33.2177 12.7814 32.5796 12.7814 31.7806L12.7823 30.2419Z" fill="#F8F6F2"/>
</svg>
