<svg width="42" height="42" viewBox="0 0 42 42" fill="none" xmlns="http://www.w3.org/2000/svg">
<rect x="0.558823" y="0.558823" width="40.8824" height="40.8824" rx="20.4412" fill="#15876B" stroke="#15876B" stroke-width="0.882353"/>
<path d="M27.5173 15.4985C27.5639 15.5484 27.6105 15.5983 27.6537 15.6515C27.7369 15.7447 27.6271 15.5983 27.6637 15.6649C27.677 15.6948 27.7036 15.7214 27.7203 15.748C27.7569 15.8046 27.7902 15.8612 27.8234 15.9211C27.8368 15.9444 27.8467 15.9677 27.8601 15.9943C27.87 16.0143 27.91 16.1341 27.8734 16.0243C27.9166 16.154 27.9599 16.2805 27.9898 16.4169C27.9965 16.4436 27.9998 16.4702 28.0065 16.4968C28.0331 16.6266 28.0031 16.4269 28.0098 16.5068C28.0131 16.5833 28.0231 16.6599 28.0264 16.7397C28.0298 16.8828 28.0231 17.0293 28.0098 17.1724C27.9932 17.2689 28.0065 17.1923 28.0098 17.1724C28.0031 17.2023 27.9998 17.2323 27.9965 17.2589C27.9799 17.3487 27.9599 17.4353 27.9366 17.5251C27.9 17.6682 27.8534 17.808 27.8002 17.9444C27.7669 18.0276 27.8501 17.8413 27.7868 17.9777C27.7735 18.0077 27.7602 18.0376 27.7469 18.0642C27.7036 18.1507 27.6604 18.2373 27.6138 18.3238C27.5406 18.4536 27.4607 18.58 27.3709 18.7032C27.3709 18.6998 27.2744 18.833 27.3276 18.7664C27.3076 18.793 27.2843 18.8196 27.2644 18.8463C27.1978 18.9261 27.1279 19.006 27.0547 19.0792C26.8051 19.3388 26.6121 19.4985 26.3426 19.6749C26.0464 19.8646 25.8201 19.9711 25.5505 20.0576C25.4141 20.1009 25.2743 20.1375 25.1312 20.1674C25.0946 20.1741 25.058 20.1807 25.0214 20.1874C24.9382 20.204 25.1412 20.1774 25.0014 20.1907C24.9282 20.1974 24.8583 20.204 24.7851 20.2074C24.642 20.214 24.5023 20.2074 24.3592 20.194C24.2627 20.1841 24.3492 20.1907 24.3691 20.194C24.3292 20.1874 24.286 20.1807 24.246 20.1707C24.1795 20.1574 24.1129 20.1408 24.0463 20.1208C23.9798 20.1009 23.9166 20.0776 23.8533 20.0543C23.9532 20.0909 23.8666 20.0609 23.8433 20.0476C23.8134 20.0343 23.7834 20.0177 23.7535 20.0044C23.7003 19.9777 23.647 19.9445 23.5971 19.9145C23.5671 19.8979 23.5405 19.8779 23.5139 19.8579C23.4041 19.788 23.5838 19.9212 23.4873 19.838C23.3841 19.7481 23.2876 19.6516 23.1977 19.5484C23.1811 19.5318 23.1478 19.4719 23.2011 19.5518C23.1811 19.5251 23.1611 19.4952 23.1445 19.4686C23.1046 19.4053 23.0646 19.3421 23.0314 19.2789C23.0147 19.2489 22.9415 19.0659 22.9814 19.1791C22.9615 19.1225 22.9382 19.0659 22.9215 19.006C22.9049 18.9461 22.8883 18.8862 22.8749 18.8263C22.865 18.7864 22.8583 18.7464 22.8517 18.7032C22.8284 18.5967 22.8583 18.7897 22.845 18.6699C22.8317 18.5368 22.825 18.4003 22.8317 18.2672C22.835 18.2007 22.8383 18.1374 22.845 18.0709C22.845 18.0709 22.8616 17.9311 22.8517 18.0043C22.8417 18.0642 22.8683 17.9111 22.8716 17.8945C22.8982 17.7614 22.9315 17.6283 22.9748 17.4952C22.9981 17.422 23.0247 17.3487 23.0513 17.2755C23.1046 17.1358 23.028 17.3254 23.0646 17.2422C23.0879 17.1923 23.1112 17.1391 23.1345 17.0892C23.1977 16.9561 23.271 16.8296 23.3508 16.7031C23.3941 16.6333 23.4407 16.5634 23.4906 16.4935C23.5106 16.4669 23.5305 16.4369 23.5505 16.4103C23.5072 16.4669 23.6037 16.3437 23.6171 16.3304C23.7235 16.204 23.8367 16.0808 23.9598 15.9677C24.0231 15.9078 24.0863 15.8479 24.1528 15.7913C24.1795 15.768 24.2061 15.748 24.2327 15.7248C24.2793 15.6881 24.286 15.6815 24.2527 15.7081C24.2726 15.6915 24.2926 15.6782 24.3126 15.6615C24.459 15.555 24.6154 15.4552 24.7751 15.3687C24.8517 15.3254 24.9316 15.2855 25.0147 15.2489C25.0048 15.2522 25.1512 15.1923 25.088 15.2156C25.058 15.2289 25.068 15.2256 25.1146 15.2056C25.1445 15.1956 25.1745 15.1823 25.2011 15.1723C25.3608 15.1158 25.5206 15.0692 25.687 15.0359C25.7169 15.0292 25.7469 15.0226 25.7768 15.0193C25.8134 15.0126 25.9099 14.9993 25.8201 15.0093C25.9066 14.9993 25.9931 14.9926 26.083 14.9893C26.2394 14.9826 26.3958 14.9893 26.5489 15.0093C26.4357 14.996 26.5322 15.0059 26.5589 15.0126C26.6055 15.0226 26.652 15.0326 26.6986 15.0425C26.7652 15.0592 26.8317 15.0758 26.895 15.0991C26.9349 15.1124 26.9715 15.1257 27.0081 15.1391C26.9283 15.1091 26.9981 15.1357 27.0381 15.1524C27.098 15.1823 27.1579 15.2123 27.2145 15.2489C27.2477 15.2688 27.2843 15.2921 27.3176 15.3154C27.3376 15.3287 27.4374 15.402 27.3476 15.3321C27.3975 15.3853 27.4574 15.4419 27.5173 15.4985C27.7103 15.6881 28.0298 15.6915 28.2228 15.4985C28.4125 15.3088 28.4158 14.9826 28.2228 14.793C27.1446 13.7347 25.484 13.8345 24.2327 14.5201C22.8849 15.2589 21.8533 16.7198 21.8134 18.2839C21.7967 18.9993 22.0197 19.6949 22.4756 20.2473C22.9215 20.7864 23.5804 21.0859 24.2627 21.1724C25.8101 21.3721 27.3076 20.4503 28.1962 19.2423C29.1379 17.9611 29.4175 16.0109 28.2195 14.7896C28.0298 14.5966 27.7036 14.5999 27.514 14.7896C27.3243 14.986 27.3276 15.3054 27.5173 15.4985Z" fill="#F8F6F2"/>
<path d="M28.1221 15.5787C28.5448 15.2925 28.8476 14.8432 29.0107 14.364C29.0806 14.1577 29.1138 13.9414 29.1305 13.725C29.1371 13.6419 29.1371 13.5587 29.1405 13.4755C29.1438 13.4289 29.1471 13.3823 29.1504 13.3324C29.1571 13.2725 29.1571 13.2691 29.1504 13.329C29.1538 13.2991 29.1604 13.2691 29.1638 13.2392C29.1904 13.0861 29.2303 12.933 29.2836 12.7833C29.2902 12.7666 29.3435 12.6402 29.2935 12.7533C29.3102 12.7167 29.3268 12.6801 29.3435 12.6468C29.3834 12.567 29.43 12.4871 29.4799 12.4139C29.4999 12.3839 29.5232 12.3506 29.5465 12.3207C29.4799 12.4106 29.5298 12.3407 29.5498 12.3207C29.5964 12.2708 29.6396 12.2209 29.6896 12.1743C29.7162 12.1477 29.7461 12.1244 29.7728 12.1011C29.8626 12.0179 29.6862 12.1576 29.7861 12.0877C29.8559 12.0378 29.9292 11.9912 30.0024 11.948C30.0556 11.918 30.1122 11.8914 30.1688 11.8648C30.0523 11.918 30.1688 11.8681 30.1887 11.8581C30.2253 11.8448 30.2619 11.8315 30.2986 11.8215C30.3718 11.7982 30.4483 11.7783 30.5248 11.7649C30.5648 11.7583 30.6047 11.7516 30.6413 11.745C30.5182 11.7683 30.6413 11.745 30.6679 11.7417C31.034 11.705 31.3967 11.7649 31.7628 11.7283C32.1388 11.6917 32.5049 11.6052 32.8377 11.4155C33.4933 11.0428 33.8427 10.344 33.9891 9.62848C34.0424 9.37223 33.9159 9.07605 33.6397 9.01283C33.3901 8.95625 33.0806 9.08937 33.0241 9.36225C32.9941 9.512 32.9575 9.66175 32.9076 9.80485C32.8943 9.84146 32.8211 10.0145 32.881 9.88805C32.8477 9.96126 32.8111 10.0378 32.7711 10.1077C32.7412 10.1576 32.7112 10.2042 32.678 10.2508C32.6147 10.3473 32.7512 10.1709 32.6746 10.2574C32.6513 10.2841 32.6314 10.3074 32.6081 10.334C32.5681 10.3739 32.5282 10.4138 32.4849 10.4505C32.4616 10.4704 32.3718 10.527 32.4783 10.4571C32.4384 10.4837 32.4017 10.5104 32.3618 10.5336C32.3052 10.5669 32.2453 10.5935 32.1888 10.6235C32.1255 10.6601 32.3019 10.5869 32.1888 10.6235C32.1522 10.6335 32.1156 10.6501 32.0789 10.6601C32.0024 10.6834 31.9225 10.7034 31.8427 10.7167C31.816 10.7233 31.7861 10.7267 31.7595 10.73C31.8826 10.71 31.6929 10.7333 31.6696 10.7366C31.3202 10.7599 30.9741 10.7067 30.6247 10.7433C29.9425 10.8198 29.2769 11.0861 28.8243 11.6219C28.3285 12.2109 28.1654 12.9131 28.1288 13.6685C28.1255 13.7184 28.1221 13.7716 28.1155 13.8216C28.1288 13.7217 28.0955 13.9048 28.0922 13.9247C28.0722 14.0112 28.0423 14.0944 28.0123 14.1776C28.0523 14.0678 28.0057 14.1909 27.9957 14.2076C27.9724 14.2542 27.9491 14.2974 27.9225 14.3407C27.8859 14.4006 27.8459 14.4572 27.806 14.5137C27.8892 14.3906 27.7627 14.5603 27.7328 14.5936C27.6995 14.6302 27.6629 14.6635 27.6263 14.6968C27.5897 14.7301 27.4732 14.8266 27.6396 14.6901C27.6296 14.6968 27.6196 14.7068 27.6097 14.7134C27.3867 14.8632 27.2869 15.1527 27.43 15.3956C27.5664 15.6186 27.8958 15.7284 28.1221 15.5787Z" fill="#F8F6F2"/>
<path d="M28.5936 21.6319C28.7267 22.1011 28.8265 22.577 28.8964 23.0562C28.9097 23.1494 28.8931 23.0296 28.9064 23.1227C28.913 23.1793 28.9197 23.2392 28.9264 23.2958C28.9397 23.4189 28.953 23.5454 28.9596 23.6685C28.9763 23.9114 28.9896 24.151 28.9896 24.394C28.9929 24.8699 28.9696 25.3457 28.9097 25.8183C28.9064 25.8516 28.9031 25.8848 28.8964 25.9181C28.8964 25.9081 28.9064 25.8516 28.8964 25.9081C28.8898 25.9647 28.8798 26.0246 28.8698 26.0812C28.8498 26.2043 28.8299 26.3274 28.8032 26.4506C28.7566 26.6902 28.7034 26.9265 28.6402 27.1627C28.517 27.6286 28.364 28.0845 28.1843 28.5305C28.1743 28.5538 28.1643 28.5771 28.1543 28.6004C28.1809 28.5338 28.1476 28.6137 28.1443 28.6203C28.121 28.6736 28.0977 28.7301 28.0711 28.7834C28.0179 28.8999 27.9646 29.0163 27.908 29.1295C27.8015 29.3458 27.6884 29.5555 27.5653 29.7618C27.0528 30.6437 26.4937 31.3492 25.7516 32.0613C25.5819 32.2244 25.4055 32.3841 25.2258 32.5339C25.1393 32.6071 25.0528 32.677 24.9629 32.7468C24.9429 32.7602 24.9263 32.7768 24.9063 32.7901C24.8431 32.84 24.9596 32.7502 24.893 32.8001C24.8431 32.84 24.7899 32.8766 24.7399 32.9166C24.3772 33.1828 23.9978 33.4291 23.6051 33.6487C23.4088 33.7585 23.2058 33.865 23.0028 33.9615C22.913 34.0048 22.8198 34.048 22.7266 34.088C22.67 34.1146 22.6134 34.1379 22.5569 34.1612C22.6401 34.1246 22.4803 34.1911 22.4604 34.2011C22.0544 34.3642 21.6351 34.504 21.2124 34.6171C20.7898 34.7302 20.3638 34.8134 19.9312 34.88C19.9112 34.8833 19.8314 34.8933 19.9279 34.88C19.9046 34.8833 19.8813 34.8867 19.8613 34.89C19.8081 34.8966 19.7548 34.9033 19.7016 34.9099C19.5884 34.9233 19.4753 34.9332 19.3588 34.9432C19.1392 34.9599 18.9162 34.9698 18.6966 34.9765C18.264 34.9832 17.828 34.9665 17.3954 34.9233C17.2889 34.9133 17.1824 34.9 17.0759 34.8867C17.016 34.88 17.0859 34.8867 17.0959 34.89C17.0659 34.8867 17.036 34.88 17.006 34.8767C16.9461 34.8667 16.8862 34.8567 16.8263 34.8467C16.6167 34.8134 16.4037 34.7702 16.1974 34.7236C15.7614 34.6271 15.3355 34.5006 14.9162 34.3509C14.813 34.3143 14.7132 34.2777 14.6133 34.2377C14.5701 34.2211 14.5268 34.2044 14.4835 34.1845C14.4536 34.1712 14.427 34.1612 14.397 34.1479C14.4436 34.1678 14.4236 34.1579 14.387 34.1445C14.1807 34.0547 13.9777 33.9582 13.7747 33.8583C13.3687 33.652 12.976 33.4191 12.5966 33.1662C12.5101 33.1096 12.4269 33.0497 12.3437 32.9898C12.2971 32.9565 12.2539 32.9232 12.2073 32.8899C12.1807 32.87 12.1574 32.8533 12.1307 32.8334C12.1241 32.8267 12.0509 32.7735 12.0875 32.8001C12.0542 32.7735 11.9244 32.6703 11.8545 32.6137C11.7614 32.5372 11.6682 32.4573 11.5783 32.3775C11.2289 32.068 10.8994 31.7385 10.5933 31.3891C10.5201 31.3026 10.4435 31.2194 10.3736 31.1295C10.337 31.0863 10.3038 31.043 10.2672 30.9997C10.2472 30.9731 10.2272 30.9498 10.2073 30.9232C10.1873 30.8999 10.164 30.8699 10.1973 30.9099C10.0575 30.7269 9.92106 30.5405 9.7946 30.3475C9.54502 29.9748 9.31872 29.5887 9.11572 29.1894C9.01256 28.9897 8.91938 28.7834 8.82953 28.5771C8.80623 28.5238 8.82953 28.5804 8.83619 28.5904C8.82287 28.5604 8.81289 28.5338 8.79958 28.5039C8.77961 28.4539 8.75965 28.404 8.73968 28.3541C8.69642 28.2476 8.65648 28.1378 8.61988 28.028C8.47345 27.6153 8.35365 27.1927 8.25714 26.7667C8.20722 26.5504 8.16729 26.3341 8.13068 26.1145C8.1207 26.0612 8.11404 26.008 8.10739 25.9547C8.10406 25.9314 8.10073 25.9081 8.0974 25.8882C8.10073 25.9081 8.11072 25.9847 8.0974 25.8848C8.08409 25.7784 8.07078 25.6719 8.0608 25.5654C8.01754 25.1261 8.0009 24.6835 8.01088 24.2409C8.01421 24.0279 8.02752 23.8149 8.04416 23.6019C8.05414 23.4955 8.06413 23.389 8.07411 23.2825C8.08077 23.2292 8.08742 23.176 8.09408 23.1227C8.0974 23.1094 8.10739 23.0129 8.10073 23.0761C8.09408 23.1327 8.10739 23.0395 8.10739 23.0296C8.23385 22.1577 8.46679 21.2991 8.79958 20.4804C8.80956 20.4605 8.81622 20.4372 8.8262 20.4172C8.85615 20.344 8.79958 20.4804 8.82953 20.4072C8.8495 20.3573 8.87279 20.3074 8.89609 20.2575C8.94268 20.151 8.99259 20.0445 9.04251 19.9413C9.13902 19.745 9.23885 19.552 9.34535 19.3589C9.57164 18.9596 9.82123 18.5736 10.0941 18.2075C10.1274 18.1643 10.1607 18.1177 10.1939 18.0744C10.1474 18.1343 10.2206 18.0411 10.2339 18.0245C10.3137 17.9246 10.3969 17.8248 10.4801 17.725C10.6266 17.5519 10.7796 17.3822 10.9394 17.2191C11.2921 16.8531 11.6748 16.5103 12.0742 16.1942C12.1341 16.1443 12.0775 16.1908 12.1407 16.1443C12.1906 16.1076 12.2372 16.071 12.2872 16.0344C12.3936 15.9579 12.5001 15.8814 12.6066 15.8081C12.813 15.6684 13.0259 15.5353 13.2422 15.4088C13.4586 15.2857 13.6749 15.1659 13.8978 15.0594C13.9977 15.0095 14.0975 14.9629 14.1973 14.9163C14.3404 14.8531 14.3704 14.8397 14.4769 14.7965C14.9295 14.6134 15.3954 14.457 15.8679 14.3372C16.0942 14.2773 16.3238 14.2274 16.5568 14.1842C16.6733 14.1609 16.7864 14.1409 16.9029 14.1243C16.9594 14.1143 17.0193 14.1076 17.0759 14.0976C17.1358 14.0876 17.0792 14.0976 17.0659 14.0976C17.1059 14.091 17.1491 14.0876 17.1891 14.081C17.6616 14.0244 18.1375 14.0011 18.6134 14.0045C18.8563 14.0078 19.0959 14.0178 19.3389 14.0377C19.4553 14.0477 19.5718 14.0577 19.6883 14.071C19.7448 14.0777 19.8047 14.0843 19.8613 14.091C19.8646 14.091 19.9445 14.101 19.8946 14.0943C19.838 14.0876 19.9678 14.1043 19.9778 14.1076C20.4437 14.1775 20.9029 14.2773 21.3522 14.4038C21.6018 14.4737 21.9079 14.3173 21.9678 14.0544C22.0277 13.7881 21.888 13.5153 21.6184 13.4387C19.645 12.883 17.5318 12.863 15.5484 13.3821C13.5218 13.9146 11.6549 15.0161 10.2039 16.5236C8.87279 17.908 7.89441 19.6218 7.39523 21.4755C6.90604 23.2891 6.87276 25.2126 7.28541 27.0463C7.70805 28.9132 8.61322 30.6503 9.87447 32.0846C11.1557 33.5422 12.8096 34.6504 14.6366 35.3026C16.4103 35.9382 18.3239 36.1013 20.1841 35.8318C22.0277 35.5655 23.8148 34.8267 25.3057 33.7119C27.0062 32.4374 28.3207 30.7435 29.126 28.7801C29.9014 26.8832 30.1211 24.7933 29.8282 22.77C29.7583 22.2874 29.6552 21.8116 29.5254 21.3457C29.4522 21.0861 29.1726 20.9264 28.9097 20.9962C28.6834 21.0861 28.5204 21.369 28.5936 21.6319Z" fill="#F8F6F2"/>
<path d="M20.7434 21.5657C20.1577 22.1514 19.5753 22.7337 18.9896 23.3194C18.0645 24.2446 17.136 25.173 16.2109 26.0982C15.9979 26.3112 15.7849 26.5241 15.572 26.7371C15.3823 26.9268 15.3823 27.2529 15.572 27.4426C15.7616 27.6323 16.0878 27.6323 16.2775 27.4426C16.8632 26.8569 17.4455 26.2746 18.0312 25.6889C18.9564 24.7637 19.8848 23.8352 20.81 22.9101C21.023 22.6971 21.2359 22.4841 21.4489 22.2712C21.6386 22.0815 21.6386 21.7553 21.4489 21.5657C21.2592 21.3726 20.9331 21.3726 20.7434 21.5657Z" fill="#F8F6F2"/>
<path d="M15.572 22.2706C16.1577 22.8563 16.74 23.4387 17.3257 24.0244C18.2509 24.9495 19.1793 25.878 20.1045 26.8031C20.3175 27.0161 20.5304 27.2291 20.7434 27.4421C20.9331 27.6318 21.2592 27.6318 21.4489 27.4421C21.6386 27.2524 21.6386 26.9263 21.4489 26.7366C20.8632 26.1509 20.2808 25.5685 19.6951 24.9828C18.77 24.0577 17.8415 23.1292 16.9164 22.2041C16.7034 21.9911 16.4904 21.7781 16.2775 21.5651C16.0878 21.3754 15.7616 21.3754 15.572 21.5651C15.3823 21.7548 15.3823 22.0776 15.572 22.2706Z" fill="#F8F6F2"/>
</svg>
