<svg width="42" height="42" viewBox="0 0 42 42" fill="none" xmlns="http://www.w3.org/2000/svg">
<rect x="0.558823" y="0.558823" width="40.8824" height="40.8824" rx="20.4412" fill="#15876B" stroke="#15876B" stroke-width="0.882353"/>
<path d="M28.169 7V7.84507H31.3644L25.5678 13.6417C24.4532 12.6681 23.0016 12.0704 21.4085 12.0704C18.0112 12.0704 15.237 14.758 15.0836 18.118C12.1853 18.7001 10 21.2565 10 24.3239C10 27.6767 12.6173 30.4298 15.9155 30.6488V33.6197H13.3803V34.4648H15.9155V37H16.7606V34.4648H19.2958V33.6197H16.7606V30.6488C19.9579 30.4365 22.5095 27.8405 22.6629 24.6276C25.5611 24.0455 27.7465 21.4758 27.7465 18.4085C27.7465 16.8121 27.1391 15.3646 26.162 14.2491L31.9718 8.43926V11.6479H32.8169V7.42254V7H32.3944H28.169ZM21.4085 12.9155C24.4471 12.9155 26.9014 15.3698 26.9014 18.4085C26.9014 21.0193 25.0872 23.1942 22.6496 23.7562C22.3611 20.5264 19.6417 17.9859 16.338 17.9859C16.1998 17.9859 16.0648 18.0036 15.9287 18.0123C16.1344 15.1626 18.5053 12.9155 21.4085 12.9155ZM16.338 18.831C19.2274 18.831 21.5795 21.0577 21.8046 23.8882C21.6745 23.8974 21.5409 23.9014 21.4085 23.9014C18.52 23.9014 16.1683 21.6866 15.9419 18.8574C16.072 18.8482 16.2056 18.831 16.338 18.831ZM15.0968 18.9894C15.3915 22.2129 18.1093 24.7465 21.4085 24.7465C21.5466 24.7465 21.6818 24.742 21.8178 24.7333C21.6103 27.5812 19.2399 29.8169 16.338 29.8169C13.2993 29.8169 10.8451 27.3626 10.8451 24.3239C10.8451 21.7131 12.6593 19.5514 15.0968 18.9894Z" fill="#F8F6F2"/>
</svg>
