<svg width="43" height="42" viewBox="0 0 43 42" fill="none" xmlns="http://www.w3.org/2000/svg">
<rect x="1.30882" y="0.558823" width="40.8824" height="40.8824" rx="20.4412" fill="#15876B" stroke="#15876B" stroke-width="0.882353"/>
<path d="M30.947 29.5548C30.9196 29.5231 28.1764 26.3198 25.2847 22.309C27.275 18.8086 28.2053 15.9947 28.123 13.7188C28.1317 13.664 28.1317 13.6078 28.1187 13.5515C27.4581 10.4637 26.675 8.47188 25.7404 7.47832C24.9083 6.50626 23.0103 6.00003 21.558 6.00003H21.5335C20.0725 5.9957 18.1601 6.5005 17.3381 7.46245C16.392 8.46915 15.6103 10.4551 14.9512 13.5301C14.9498 13.5359 14.9483 13.5417 14.9469 13.5474C14.9469 13.5489 14.9454 13.5503 14.9454 13.5532C14.944 13.5561 14.9454 13.5604 14.944 13.5633C14.9397 13.5835 14.9353 13.6037 14.9339 13.6253C14.8214 15.917 15.7531 18.7611 17.7708 22.3103C14.8805 26.3196 12.1358 29.5229 12.1085 29.5562C11.9903 29.6946 11.9657 29.8908 12.0494 30.0537L14.9757 35.7563C15.0464 35.8933 15.1819 35.9841 15.3348 35.9986C15.3478 36 15.3622 36 15.3752 36C15.5137 36 15.6463 35.9351 15.7314 35.824L15.8454 35.6755C17.8689 33.0376 19.7856 30.5382 21.5265 28.0907C23.2672 30.5382 25.184 33.0375 27.2076 35.6755C27.2754 35.7418 27.3792 36 27.6777 36C27.6907 36 27.7051 36 27.7181 35.9986C27.871 35.9841 28.0066 35.8933 28.0772 35.7563L31.0035 30.0537C31.0872 29.8908 31.0641 29.6946 30.9444 29.5562L30.947 29.5548ZM24.7091 21.5026C23.7154 20.0964 22.8255 18.7566 22.0539 17.5047C23.4731 15.1553 24.4697 13.1233 25.0235 11.4474C25.8816 11.8902 26.7023 12.5998 27.2229 13.7305L27.2273 13.7406C27.3037 15.7698 26.4787 18.3155 24.7091 21.5026ZM21.5289 16.6323C20.2554 14.4848 19.3627 12.6285 18.8651 11.0985C20.3593 10.5937 22.6669 10.5822 24.1914 11.0956C23.6967 12.623 22.804 14.4806 21.5276 16.6324L21.5289 16.6323ZM18.0084 8.06099C18.6329 7.32976 20.2756 6.89711 21.5145 6.89711H21.5563C22.7923 6.89711 24.4336 7.3298 25.0739 8.07686C25.6609 8.70279 26.2018 9.85515 26.6878 11.5152C26.1643 11.0493 25.5831 10.7133 25.0062 10.4681C24.9528 10.4306 24.8893 10.4047 24.8215 10.3931C22.9034 9.64026 20.2193 9.61862 18.2436 10.3946C18.173 10.4061 18.1081 10.4321 18.0518 10.4724C17.4778 10.7176 16.9009 11.0522 16.3803 11.5152C16.8663 9.85372 17.41 8.69848 18.0086 8.06244L18.0084 8.06099ZM15.4542 34.7123L12.9894 29.9081C13.6499 29.125 15.8869 26.4352 18.268 23.157C19.018 24.4118 19.9122 25.7805 20.9809 27.3107C19.2935 29.6991 17.4273 32.1408 15.4542 34.7123ZM27.605 34.7123C25.5628 32.05 23.6315 29.5245 21.8966 27.0556C20.5885 25.1922 19.54 23.5754 18.6948 22.1129C16.6901 18.6429 15.7541 15.9083 15.832 13.7521C16.3497 12.6098 17.1732 11.8945 18.0357 11.4488C18.6098 13.1838 19.651 15.2953 21.1452 17.7413C22.0625 19.2441 23.1528 20.8782 24.3859 22.5987C24.3888 22.6016 24.3902 22.6045 24.3931 22.6073C26.9185 26.1308 29.3716 29.08 30.0683 29.9067L27.6035 34.7109L27.605 34.7123Z" fill="#F8F6F2"/>
</svg>
