<svg width="36" height="40" viewBox="0 0 36 40" fill="none" xmlns="http://www.w3.org/2000/svg">
<path d="M10 15.875H6C4.93913 15.875 3.92172 16.2964 3.17157 17.0466C2.42143 17.7967 2 18.8141 2 19.875V33.875C2 34.9359 2.42143 35.9533 3.17157 36.7034C3.92172 37.4536 4.93913 37.875 6 37.875H30C31.0609 37.875 32.0783 37.4536 32.8284 36.7034C33.5786 35.9533 34 34.9359 34 33.875V19.875C34 18.8141 33.5786 17.7967 32.8284 17.0466C32.0783 16.2964 31.0609 15.875 30 15.875H26M10 15.875V9.875C10 7.75327 10.8429 5.71844 12.3431 4.21815C13.8434 2.71785 15.8783 1.875 18 1.875C20.1217 1.875 22.1566 2.71785 23.6569 4.21815C25.1571 5.71844 26 7.75327 26 9.875V15.875M10 15.875H26M18 23.875V29.875" stroke="#15876B" stroke-width="3" stroke-linecap="round" stroke-linejoin="round"/>
</svg>
