<svg width="30" height="21" viewBox="0 0 30 21" fill="none" xmlns="http://www.w3.org/2000/svg">
<path d="M26.4193 0.000235796L27.2322 1.96475C24.7484 2.73249 22.8516 3.79378 21.5419 5.14862C20.2774 6.4583 19.6451 7.8583 19.6451 9.34862C19.6451 10.3422 20.029 10.8389 20.7967 10.8389C21.2935 10.8389 21.9032 10.726 22.6258 10.5002C23.3484 10.2293 24.1161 10.0938 24.929 10.0938C26.4645 10.0938 27.6838 10.568 28.5871 11.5164C29.5355 12.4648 30.0097 13.6841 30.0097 15.1744C30.0097 16.8002 29.4226 18.1325 28.2484 19.1712C27.0742 20.2099 25.5613 20.7293 23.7097 20.7293C21.4967 20.7293 19.758 19.9615 18.4935 18.426C17.2742 16.8906 16.6645 14.768 16.6645 12.0583C16.6645 9.07765 17.4774 6.59378 19.1032 4.60668C20.729 2.57443 23.1677 1.03894 26.4193 0.000235796ZM9.68707 0.000235796L10.5 1.96475C8.06127 2.73249 6.18707 3.79378 4.8774 5.14862C3.56772 6.4583 2.91288 7.8583 2.91288 9.34862C2.91288 10.3422 3.29675 10.8389 4.06449 10.8389C4.56127 10.8389 5.17094 10.726 5.89352 10.5002C6.61611 10.2293 7.40643 10.0938 8.26449 10.0938C9.79998 10.0938 11.0193 10.568 11.9226 11.5164C12.8258 12.4648 13.2774 13.6841 13.2774 15.1744C13.2774 16.8002 12.6903 18.1325 11.5161 19.1712C10.3871 20.2099 8.87417 20.7293 6.9774 20.7293C4.80965 20.7293 3.09352 19.9615 1.82901 18.426C0.609654 16.8906 -2.37375e-05 14.768 -2.37375e-05 12.0583C-2.37375e-05 9.07765 0.812879 6.59378 2.43869 4.60668C4.06449 2.57443 6.48062 1.03894 9.68707 0.000235796Z" fill="#E0B080"/>
</svg>
