<svg width="321" height="6" viewBox="0 0 321 6" fill="none" xmlns="http://www.w3.org/2000/svg">
<g clip-path="url(#clip0_366_1185)">
<path d="M0 2.99998C1.2 0.771409 3.65714 0.771409 4.91429 2.99998C6.11429 5.22855 8.57143 5.22855 9.82857 2.99998C11.0286 0.771409 13.4857 0.771409 14.7429 2.99998C15.9429 5.22855 18.4 5.22855 19.6571 2.99998C20.9143 0.771409 23.3143 0.771409 24.5714 2.99998C25.7714 5.22855 28.2286 5.22855 29.4857 2.99998C30.6857 0.771409 33.1429 0.771409 34.4 2.99998C35.6571 5.22855 38.0571 5.22855 39.3143 2.99998C40.5143 0.771409 42.9714 0.771409 44.2286 2.99998C45.4286 5.22855 47.8857 5.22855 49.1429 2.99998C50.4 0.771409 52.8 0.771409 54.0571 2.99998C55.2571 5.22855 57.7143 5.22855 58.9714 2.99998C60.1714 0.771409 62.6286 0.771409 63.8857 2.99998C65.0857 5.22855 67.5429 5.22855 68.8 2.99998C70 0.771409 72.4571 0.771409 73.7143 2.99998C74.9143 5.22855 77.3714 5.22855 78.6286 2.99998C79.8286 0.771409 82.2857 0.771409 83.5429 2.99998C84.7429 5.22855 87.2 5.22855 88.4571 2.99998C89.6571 0.771409 92.1143 0.771409 93.3714 2.99998C94.5714 5.22855 97.0286 5.22855 98.2857 2.99998C99.4857 0.771409 101.943 0.771409 103.2 2.99998C104.457 5.22855 106.857 5.22855 108.114 2.99998C109.371 0.771409 111.771 0.771409 113.029 2.99998C114.229 5.22855 116.686 5.22855 117.943 2.99998C119.143 0.771409 121.6 0.771409 122.857 2.99998C124.057 5.22855 126.514 5.22855 127.771 2.99998" stroke="#FC3639" stroke-width="1.14286"/>
<path d="M127.771 2.99998C128.971 0.771409 131.429 0.771409 132.686 2.99998C133.886 5.22855 136.343 5.22855 137.6 2.99998C138.8 0.771409 141.257 0.771409 142.514 2.99998C143.714 5.22855 146.171 5.22855 147.429 2.99998C148.686 0.771409 151.086 0.771409 152.343 2.99998C153.543 5.22855 156 5.22855 157.257 2.99998C158.457 0.771409 160.914 0.771409 162.171 2.99998C163.429 5.22855 165.829 5.22855 167.086 2.99998C168.286 0.771409 170.743 0.771409 172 2.99998C173.2 5.22855 175.657 5.22855 176.914 2.99998C178.171 0.771409 180.571 0.771409 181.829 2.99998C183.029 5.22855 185.486 5.22855 186.743 2.99998C187.943 0.771409 190.4 0.771409 191.657 2.99998C192.857 5.22855 195.314 5.22855 196.571 2.99998C197.771 0.771409 200.229 0.771409 201.486 2.99998C202.686 5.22855 205.143 5.22855 206.4 2.99998C207.6 0.771409 210.057 0.771409 211.314 2.99998C212.514 5.22855 214.971 5.22855 216.229 2.99998C217.429 0.771409 219.886 0.771409 221.143 2.99998C222.343 5.22855 224.8 5.22855 226.057 2.99998C227.257 0.771409 229.714 0.771409 230.971 2.99998C232.229 5.22855 234.629 5.22855 235.886 2.99998C237.143 0.771409 239.543 0.771409 240.8 2.99998C242 5.22855 244.457 5.22855 245.714 2.99998C246.914 0.771409 249.371 0.771409 250.629 2.99998C251.829 5.22855 254.286 5.22855 255.543 2.99998" stroke="#FC3639" stroke-width="1.14286"/>
<path d="M255.543 2.99998C256.743 0.771409 259.2 0.771409 260.457 2.99998C261.657 5.22855 264.114 5.22855 265.372 2.99998C266.572 0.771409 269.029 0.771409 270.286 2.99998C271.486 5.22855 273.943 5.22855 275.2 2.99998C276.457 0.771409 278.857 0.771409 280.114 2.99998C281.314 5.22855 283.772 5.22855 285.029 2.99998C286.229 0.771409 288.686 0.771409 289.943 2.99998C291.2 5.22855 293.6 5.22855 294.857 2.99998C296.057 0.771409 298.514 0.771409 299.772 2.99998C300.972 5.22855 303.429 5.22855 304.686 2.99998C305.943 0.771409 308.343 0.771409 309.6 2.99998C310.8 5.22855 313.257 5.22855 314.514 2.99998C315.714 0.771409 318.172 0.771409 319.429 2.99998C320.629 5.22855 323.086 5.22855 324.343 2.99998C325.543 0.771409 328 0.771409 329.257 2.99998C330.457 5.22855 332.914 5.22855 334.172 2.99998C335.372 0.771409 337.829 0.771409 339.086 2.99998C340.286 5.22855 342.743 5.22855 344 2.99998C345.2 0.771409 347.657 0.771409 348.914 2.99998C350.114 5.22855 352.572 5.22855 353.829 2.99998C355.029 0.771409 357.486 0.771409 358.743 2.99998C360 5.22855 362.4 5.22855 363.657 2.99998C364.914 0.771409 367.314 0.771409 368.572 2.99998C369.772 5.22855 372.229 5.22855 373.486 2.99998C374.686 0.771409 377.143 0.771409 378.4 2.99998C379.6 5.22855 382.057 5.22855 383.314 2.99998" stroke="#FC3639" stroke-width="1.14286"/>
</g>
<defs>
<clipPath id="clip0_366_1185">
<rect width="321" height="6" fill="white"/>
</clipPath>
</defs>
</svg>
