<svg width="1511" height="469" viewBox="0 0 1511 469" fill="none" xmlns="http://www.w3.org/2000/svg">
<g clip-path="url(#clip0_1642_14037)">
<rect width="1510.39" height="468.5" fill="#B7EFFF"/>
<path d="M157.707 36.7622C148.787 36.491 139.911 35.2819 131.223 33.2543C131.18 33.3872 131.237 33.4968 131.199 33.613L98.5275 135.785C98.5275 135.785 98.3489 136.058 98.2957 136.224C106.532 139.608 114.474 143.795 121.901 148.733L176.73 185.25L223.544 38.7952L157.701 36.7241L157.707 36.7622Z" fill="#369FFF" fill-opacity="0.19"/>
<path d="M88.3384 132.496L120.968 30.4559L120.835 30.4134L87.3699 19.7121C80.5605 17.5346 73.2783 21.3021 71.1063 28.0946L46.3471 105.522C44.1696 112.331 47.937 119.614 54.7295 121.786L88.1949 132.487L88.361 132.54L88.3384 132.496Z" fill="#369FFF" fill-opacity="0.19"/>
<path d="M194.066 206.322C200.493 208.377 207.487 204.481 209.691 197.589L257.591 47.8541C259.795 40.9617 256.342 33.725 249.931 31.6751C243.504 29.6198 236.51 33.5159 234.306 40.4083L186.423 190.148C184.219 197.041 187.672 204.277 194.082 206.327L194.066 206.322Z" fill="#369FFF" fill-opacity="0.19"/>
<path d="M256.078 87.7217C270.743 92.4111 278.893 108.143 274.188 122.858L266.736 146.159C262.047 160.824 246.315 168.974 231.6 164.268L256.078 87.7217Z" fill="#369FFF" fill-opacity="0.19"/>
<path d="M309.645 152.647L284.135 144.49C281.328 143.592 279.769 140.567 280.666 137.761C281.564 134.954 284.589 133.395 287.395 134.293L312.906 142.45C315.712 143.347 317.271 146.372 316.374 149.179C315.476 151.986 312.451 153.545 309.645 152.647Z" fill="#369FFF" fill-opacity="0.19"/>
<path d="M298.098 100.824C296.786 100.404 295.671 99.4803 294.955 98.1711C293.599 95.5408 294.635 92.3021 297.265 90.9467L323.744 77.2994C326.374 75.9437 329.613 76.9794 330.968 79.6096C332.324 82.2398 331.288 85.4786 328.658 86.834L302.18 100.481C300.886 101.148 299.41 101.243 298.081 100.818L298.098 100.824Z" fill="#369FFF" fill-opacity="0.19"/>
<path d="M287.285 203.855C285.973 203.436 284.859 202.512 284.143 201.203L270.496 174.724C269.14 172.094 270.176 168.855 272.806 167.5C275.436 166.145 278.675 167.18 280.03 169.81L293.678 196.289C295.033 198.919 293.998 202.158 291.367 203.513C290.074 204.18 288.598 204.275 287.269 203.85L287.285 203.855Z" fill="#369FFF" fill-opacity="0.19"/>
<path d="M40.2823 89.6113L27.4443 85.506C24.6375 84.6085 23.0786 81.5837 23.9761 78.777C24.8736 75.9702 27.8984 74.4113 30.7051 75.3088L43.5431 79.414L47.0482 68.4528L34.2102 64.3476C31.4034 63.45 29.8445 60.4252 30.742 57.6185C31.6395 54.8118 34.6643 53.2528 37.471 54.1503L50.309 58.2556L53.8141 47.2943L40.9762 43.1891C38.1694 42.2915 36.6104 39.2668 37.5079 36.4601C38.4055 33.6534 41.4303 32.0943 44.237 32.9918L57.0749 37.0971L62.6088 19.7915L49.7708 15.6862C38.5107 12.0855 26.4385 18.2935 22.8323 29.5706L8.01568 75.9054C4.41498 87.1656 10.6229 99.2378 21.9001 102.844L34.738 106.949L40.2823 89.6113Z" fill="#369FFF" fill-opacity="0.19"/>
<path d="M120.535 199.03C112.364 196.417 106.813 188.875 106.73 180.373L106.37 151.901C102.446 149.804 98.4459 147.83 94.256 146.105L89.2457 144.027L85.077 142.694L68.0703 137.256L68.9636 210.659L112.377 224.542C116.579 225.886 121.073 223.57 122.417 219.368L125.693 209.12C127.037 204.918 124.721 200.425 120.519 199.081L120.535 199.03Z" fill="#369FFF" fill-opacity="0.19"/>
</g>
<defs>
<clipPath id="clip0_1642_14037">
<rect width="1510.39" height="468.5" fill="white"/>
</clipPath>
</defs>
</svg>
