<svg width="48" height="49" viewBox="0 0 48 49" fill="none" xmlns="http://www.w3.org/2000/svg">
<g clip-path="url(#clip0_833_700)">
<path d="M24 24.875L42 6.875" stroke="#15876B" stroke-width="3" stroke-linecap="round" stroke-linejoin="round"/>
<path d="M36.7292 12.147C33.541 8.96628 29.2751 7.09804 24.7754 6.91186C20.2757 6.72569 15.8701 8.23515 12.43 11.1416C8.9899 14.0481 6.76598 18.1399 6.19819 22.6075C5.6304 27.075 6.7601 31.593 9.36379 35.2676C11.9675 38.9422 15.8555 41.5057 20.2587 42.451C24.6619 43.3963 29.2595 42.6545 33.142 40.3724C37.0246 38.0904 39.9091 34.4342 41.2251 30.1272C42.5411 25.8202 42.1926 21.1762 40.2486 17.1139" stroke="#15876B" stroke-width="3" stroke-linecap="round" stroke-linejoin="round"/>
<path d="M30.364 18.5111C28.8752 17.0241 26.9124 16.1058 24.8168 15.9157C22.7212 15.7256 20.6253 16.2759 18.8932 17.4708C17.1612 18.6656 15.9026 20.4296 15.3361 22.4562C14.7697 24.4827 14.9312 26.6437 15.7927 28.5634C16.6541 30.4832 18.161 32.0405 20.0515 32.9646C21.9419 33.8887 24.0964 34.1212 26.1404 33.6217C28.1845 33.1221 29.9889 31.9222 31.2401 30.2304C32.4912 28.5385 33.1101 26.4618 32.989 24.3611" stroke="#15876B" stroke-width="3" stroke-linecap="round" stroke-linejoin="round"/>
</g>
<defs>
<clipPath id="clip0_833_700">
<rect width="48" height="48" fill="white" transform="translate(0 0.875)"/>
</clipPath>
</defs>
</svg>
