<svg width="572" height="279" viewBox="0 0 572 279" fill="none" xmlns="http://www.w3.org/2000/svg">
<g clip-path="url(#clip0_1590_9698)">
<path d="M-58.1062 275.654C-59.5982 276.995 -62.5143 276.995 -63.9385 275.654V273H76.0369V275.654C74.5449 274.313 71.6288 274.313 70.2046 275.654C68.7126 276.995 65.7964 276.995 64.3723 275.654C62.8803 274.313 60.032 274.313 58.54 275.654C57.048 276.995 54.1997 276.995 52.7077 275.654C51.2157 274.313 48.2995 274.313 46.8754 275.654C45.3834 276.995 42.4672 276.995 41.0431 275.654C39.5511 274.313 36.6349 274.313 35.2108 275.654C33.7188 276.995 30.8026 276.995 29.3784 275.654C27.8865 274.313 24.9703 274.313 23.5461 275.654C22.0542 276.995 19.138 276.995 17.7138 275.654C16.2218 274.313 13.3057 274.313 11.8815 275.654C10.3895 276.995 7.47339 276.995 6.04922 275.654C4.55723 274.313 1.64108 274.313 0.216904 275.654C-1.27508 276.995 -4.19123 276.995 -5.6154 275.654C-7.10739 274.313 -9.95572 274.313 -11.4477 275.654C-12.9397 276.995 -15.8558 276.995 -17.28 275.654C-18.772 274.313 -21.6882 274.313 -23.1123 275.654C-24.6043 276.995 -27.4526 276.995 -28.9446 275.654C-30.4366 274.313 -33.3528 274.313 -34.7769 275.654C-36.2689 276.995 -39.1851 276.995 -40.6092 275.654C-42.1012 274.313 -44.9496 274.313 -46.4416 275.654C-47.9335 276.995 -50.8497 276.995 -52.2739 275.654C-53.7658 274.313 -56.682 274.313 -58.1062 275.654Z" fill="#2C68FC"/>
<path d="M81.8692 275.654C80.3772 276.995 77.461 276.995 76.0369 275.654V273H216.012V275.654C214.52 274.313 211.604 274.313 210.18 275.654C208.688 276.995 205.772 276.995 204.348 275.654C202.856 274.313 200.007 274.313 198.515 275.654C197.023 276.995 194.175 276.995 192.683 275.654C191.191 274.313 188.275 274.313 186.851 275.654C185.359 276.995 182.443 276.995 181.018 275.654C179.526 274.313 176.61 274.313 175.186 275.654C173.694 276.995 170.778 276.995 169.354 275.654C167.862 274.313 164.946 274.313 163.521 275.654C162.029 276.995 159.113 276.995 157.689 275.654C156.197 274.313 153.281 274.313 151.857 275.654C150.365 276.995 147.449 276.995 146.025 275.654C144.533 274.313 141.616 274.313 140.192 275.654C138.7 276.995 135.784 276.995 134.36 275.654C132.868 274.313 130.02 274.313 128.528 275.654C127.036 276.995 124.119 276.995 122.695 275.654C121.203 274.313 118.287 274.313 116.863 275.654C115.371 276.995 112.523 276.995 111.031 275.654C109.539 274.313 106.623 274.313 105.198 275.654C103.706 276.995 100.79 276.995 99.3661 275.654C97.8741 274.313 95.0258 274.313 93.5338 275.654C92.0418 276.995 89.1256 276.995 87.7015 275.654C86.2095 274.313 83.2933 274.313 81.8692 275.654Z" fill="#2C68FC"/>
<path d="M221.845 275.654C220.353 276.995 217.436 276.995 216.012 275.654V273H355.988V275.654C354.496 274.313 351.579 274.313 350.155 275.654C348.663 276.995 345.747 276.995 344.323 275.654C342.831 274.313 339.983 274.313 338.491 275.654C336.999 276.995 334.15 276.995 332.658 275.654C331.166 274.313 328.25 274.313 326.826 275.654C325.334 276.995 322.418 276.995 320.994 275.654C319.502 274.313 316.586 274.313 315.161 275.654C313.669 276.995 310.753 276.995 309.329 275.654C307.837 274.313 304.921 274.313 303.497 275.654C302.005 276.995 299.089 276.995 297.665 275.654C296.173 274.313 293.256 274.313 291.832 275.654C290.34 276.995 287.424 276.995 286 275.654C284.508 274.313 281.592 274.313 280.168 275.654C278.676 276.995 275.759 276.995 274.335 275.654C272.843 274.313 269.995 274.313 268.503 275.654C267.011 276.995 264.095 276.995 262.671 275.654C261.179 274.313 258.263 274.313 256.838 275.654C255.346 276.995 252.498 276.995 251.006 275.654C249.514 274.313 246.598 274.313 245.174 275.654C243.682 276.995 240.766 276.995 239.341 275.654C237.849 274.313 235.001 274.313 233.509 275.654C232.017 276.995 229.101 276.995 227.677 275.654C226.185 274.313 223.269 274.313 221.845 275.654Z" fill="#2C68FC"/>
<path d="M361.82 275.654C360.328 276.995 357.412 276.995 355.988 275.654V273H495.963V275.654C494.471 274.313 491.555 274.313 490.131 275.654C488.639 276.995 485.723 276.995 484.299 275.654C482.807 274.313 479.958 274.313 478.466 275.654C476.974 276.995 474.126 276.995 472.634 275.654C471.142 274.313 468.226 274.313 466.802 275.654C465.31 276.995 462.393 276.995 460.969 275.654C459.477 274.313 456.561 274.313 455.137 275.654C453.645 276.995 450.729 276.995 449.305 275.654C447.813 274.313 444.897 274.313 443.472 275.654C441.98 276.995 439.064 276.995 437.64 275.654C436.148 274.313 433.232 274.313 431.808 275.654C430.316 276.995 427.4 276.995 425.975 275.654C424.483 274.313 421.567 274.313 420.143 275.654C418.651 276.995 415.735 276.995 414.311 275.654C412.819 274.313 409.971 274.313 408.479 275.654C406.987 276.995 404.07 276.995 402.646 275.654C401.154 274.313 398.238 274.313 396.814 275.654C395.322 276.995 392.474 276.995 390.982 275.654C389.49 274.313 386.573 274.313 385.149 275.654C383.657 276.995 380.741 276.995 379.317 275.654C377.825 274.313 374.977 274.313 373.485 275.654C371.993 276.995 369.077 276.995 367.652 275.654C366.16 274.313 363.244 274.313 361.82 275.654Z" fill="#2C68FC"/>
<path d="M501.795 275.654C500.303 276.995 497.387 276.995 495.963 275.654V273H635.939V275.654C634.447 274.313 631.53 274.313 630.106 275.654C628.614 276.995 625.698 276.995 624.274 275.654C622.782 274.313 619.934 274.313 618.442 275.654C616.95 276.995 614.101 276.995 612.609 275.654C611.117 274.313 608.201 274.313 606.777 275.654C605.285 276.995 602.369 276.995 600.945 275.654C599.453 274.313 596.537 274.313 595.112 275.654C593.62 276.995 590.704 276.995 589.28 275.654C587.788 274.313 584.872 274.313 583.448 275.654C581.956 276.995 579.04 276.995 577.615 275.654C576.123 274.313 573.207 274.313 571.783 275.654C570.291 276.995 567.375 276.995 565.951 275.654C564.459 274.313 561.543 274.313 560.119 275.654C558.627 276.995 555.71 276.995 554.286 275.654C552.794 274.313 549.946 274.313 548.454 275.654C546.962 276.995 544.046 276.995 542.622 275.654C541.13 274.313 538.213 274.313 536.789 275.654C535.297 276.995 532.449 276.995 530.957 275.654C529.465 274.313 526.549 274.313 525.125 275.654C523.633 276.995 520.717 276.995 519.292 275.654C517.8 274.313 514.952 274.313 513.46 275.654C511.968 276.995 509.052 276.995 507.628 275.654C506.136 274.313 503.22 274.313 501.795 275.654Z" fill="#2C68FC"/>
</g>
<path d="M0 8C0 3.58172 3.58172 0 8 0H564C568.418 0 572 3.58172 572 8V273H0V8Z" fill="#2C68FC"/>
<defs>
<clipPath id="clip0_1590_9698">
<rect width="572" height="7.66" fill="white" transform="translate(0 271)"/>
</clipPath>
</defs>
</svg>
