<svg width="549" height="133" viewBox="0 0 549 133" fill="none" xmlns="http://www.w3.org/2000/svg">
<path d="M136.433 44.7707H42.0306C45.9325 46.2266 49.4267 48.032 52.455 50.245C55.5999 52.0504 58.337 54.1469 60.6083 56.5346C62.8795 58.9223 64.6849 61.5431 66.0243 64.4549C66.6067 65.7944 67.0726 66.9591 67.422 68.0074C67.7132 69.0557 67.8879 70.5116 67.8879 72.4916C67.8879 76.6265 67.0726 80.3536 65.442 83.6149C63.8113 86.8762 61.1906 90.021 57.6382 92.9329C54.6098 95.4953 50.8826 97.5919 46.4566 99.339C42.2053 100.678 37.7792 101.319 33.295 101.319C35.2168 105.221 37.3716 108.599 39.5846 111.452C41.8559 114.306 44.2436 116.752 46.806 118.848C47.2719 119.198 48.2037 119.955 49.5432 121.062C50.3003 121.702 51.2321 122.343 52.455 123.042L57.7546 125.255L61.4236 123.973L65.2673 121.76C67.0726 120.537 68.878 118.965 70.5668 116.985L75.3423 110.754C72.5469 107.318 70.2174 103.532 68.4121 99.3973C67.8297 97.7084 67.2473 95.6701 66.7814 93.3406C66.3155 91.0111 66.0243 88.9146 66.0243 86.9345C66.0243 82.5667 66.7814 78.4318 68.2956 74.5882C69.8098 70.7445 72.2557 67.1921 75.517 63.8725C78.8365 60.553 82.4473 58.107 86.4074 56.4764C90.3675 54.8457 94.5606 54.0304 98.9284 54.0304H106.266C110.518 54.0304 114.711 54.9622 118.729 56.7676C122.398 58.107 126.009 60.4948 129.503 63.8725C132.648 67.2503 135.094 70.861 136.724 74.5882C138.355 78.3736 139.17 82.4502 139.17 86.9345C139.17 89.264 138.996 91.4188 138.646 93.3988C138.297 95.3789 137.598 97.4755 136.608 99.6885C135.152 103.474 132.764 106.968 129.445 110.229C126.125 113.491 122.515 115.937 118.554 117.509C114.594 119.081 110.459 119.897 106.208 119.897H98.9284L90.3093 119.373C88.6204 119.023 87.3392 118.674 86.4656 118.383C85.5921 118.091 84.4855 117.567 83.1461 116.81C81.5737 119.14 79.8266 121.12 78.0212 122.867L72.1392 127.468C69.6933 129.157 67.0726 130.496 64.2772 131.486C62.8213 131.835 61.5401 132.185 60.4335 132.418C59.327 132.651 58.1041 132.767 56.7646 132.767H53.8527H46.5148H42.6712L39.0022 131.661L35.1586 130.03L31.3149 127.642C28.5195 125.546 26.1318 123.449 24.1517 121.236C21.7057 118.441 19.7257 115.529 18.095 112.617L14.7755 108.016L11.2813 104.347C10.0583 103.124 8.89354 102.193 7.72879 101.494C6.56405 100.795 5.28283 100.329 3.76866 99.9214L3.59394 95.7283H10.9318C12.0384 96.4854 13.6108 97.0096 15.7073 97.359L22.6375 98.116C24.21 98.116 25.6077 97.9413 26.8306 97.5919C28.0536 97.2425 29.5096 96.6601 31.1984 95.9613C33.7609 94.8548 36.2651 93.1077 38.711 90.6617C41.157 88.2157 43.0788 85.4203 44.4765 82.3337C45.8742 79.2472 46.5731 75.9276 46.5731 72.5499C46.5731 70.3368 46.4566 68.8227 46.2819 67.9492C46.1072 67.0756 45.6995 65.8526 45.1171 64.2802C44.1271 61.7177 42.6712 59.097 40.7493 56.4764C38.7693 53.8557 36.5563 51.6427 33.9938 49.7791C31.4314 47.9737 28.2866 46.2848 24.5011 44.8289H0.915039V38.7722H8.25292H136.317V44.7707H136.433ZM99.2778 63.989C97.1813 65.0955 95.143 66.7844 93.1629 68.9974C91.1246 71.2686 89.3775 74.0058 87.7468 77.3253C87.2809 78.5483 86.815 80.0625 86.4656 81.8096C86.1162 83.5567 85.9415 85.3038 85.9415 87.0509C85.9415 90.1958 86.5239 93.3988 87.6886 96.6601C88.8534 99.8632 90.6005 102.659 92.93 104.988C94.7353 106.968 96.7736 108.599 98.9866 109.938C101.2 111.045 103.471 111.744 105.917 112.151C107.256 112.151 108.421 111.977 109.469 111.627C110.518 111.278 111.682 110.695 113.022 109.996C115.118 108.89 117.215 107.259 119.311 105.046C121.466 102.833 123.155 100.096 124.553 96.8348C125.019 95.6119 125.485 94.0976 125.834 92.3505C126.183 90.6034 126.358 88.8563 126.358 87.1092C126.358 83.5567 125.776 80.2955 124.611 77.3253C123.446 74.3552 121.641 71.5598 119.195 68.9974C117.39 66.9008 115.351 65.3285 113.138 64.1637C110.925 62.999 108.538 62.1836 105.975 61.7177C103.879 61.8924 101.607 62.6495 99.2778 63.989Z" fill="white"/>
<path d="M163.512 38.7722V44.6542H148.894V119.664L149.418 123.333C149.884 124.439 150.583 125.371 151.457 126.07L154.368 128.108L158.037 128.632V132.301H150.699H119.601V128.458C120.824 128.691 121.988 128.632 123.095 128.283C124.201 127.934 125.191 127.293 126.123 126.361C127.055 125.429 127.754 124.439 128.22 123.333L128.977 119.839V44.6542H115.233V38.7722H122.571H163.512Z" fill="white"/>
<path d="M255.18 44.5964H241.436V119.606L241.96 123.275C242.31 124.382 242.892 125.313 243.591 126.012L246.678 128.05L250.172 128.575V132.244H242.834H212.259V128.4C213.482 128.633 214.589 128.575 215.579 128.225C216.569 127.876 217.442 127.235 218.316 126.42L220.121 123.333L220.878 119.839V115.995C217.967 118.267 214.647 120.014 210.978 121.353C207.426 122.401 203.524 122.984 199.272 122.984H191.934C186.81 122.984 182.034 122.227 177.666 120.771C173.415 119.082 169.455 116.578 165.844 113.258C162.233 109.939 159.555 106.27 157.807 102.135C156.06 98.0583 155.128 93.574 155.128 88.6239C155.128 83.7319 156.002 79.3059 157.807 75.3457C159.555 71.3856 162.233 67.6002 165.786 64.0477L171.435 59.6217L177.666 56.4768L184.247 54.6715L191.934 53.9144H199.272C201.951 53.9144 204.688 54.2638 207.484 55.0209C210.163 55.4868 212.842 56.4768 215.521 57.9328L218.258 59.5635L220.82 61.1941V44.5382H150.353V38.6562H157.691H255.18V44.5964ZM208.707 112.851C211.735 111.278 214.763 109.123 217.675 106.444L179.297 74.8216L177.666 78.4906L176.56 81.8101L175.803 85.3043V88.6239C175.803 90.7204 175.919 92.4675 176.152 94.0399C176.385 95.5541 176.967 97.3012 177.783 99.2813C179.239 102.31 181.452 105.28 184.364 108.075C186.46 110.172 188.964 111.919 191.876 113.375C192.75 113.724 193.74 114.132 194.905 114.481C196.069 114.831 197.933 115.355 200.495 115.937C201.485 115.704 202.708 115.355 204.223 114.831C205.737 114.19 207.251 113.549 208.707 112.851ZM220.937 71.9097C216.569 68.8814 212.725 66.4937 209.406 64.7466C206.086 63.0577 202.941 61.893 199.913 61.2523C198.341 61.2523 197.059 61.3688 196.069 61.6018C195.079 61.8347 193.682 62.3588 191.76 63.0577C189.896 63.8148 188.207 64.9795 186.751 66.5519L220.995 96.7771V71.9097H220.937Z" fill="white"/>
<path d="M322.851 44.5964H285.696C289.714 45.7029 293.266 47.2753 296.411 49.2554C299.498 51.2937 302.235 53.565 304.564 56.1274L307.884 60.4952L310.097 64.5136L311.378 68.8814L311.902 73.8316C311.902 77.617 311.087 81.1113 309.456 84.2561C307.826 87.4009 305.147 90.4874 301.478 93.3993L296.004 96.8935L290.122 99.2813C288.142 100.038 286.045 100.563 283.716 100.912L276.378 101.261C282.26 108.483 287.21 113.899 291.286 117.626C295.363 121.353 298.915 123.857 302.002 125.197L302.759 124.673H303.516L306.603 122.984L310.097 120.13L317.435 119.955L319.24 124.032C318.658 125.139 317.551 126.362 315.921 127.759L311.32 130.38L308.932 131.312L306.195 131.894L303.283 132.244H299.964H292.626C289.83 132.244 286.977 131.894 284.123 131.137C281.27 130.38 278.474 129.157 275.795 127.468C273.116 125.779 270.67 123.624 268.457 121.12C266.244 118.616 264.09 115.588 261.877 112.035C261.119 110.579 260.129 109.182 258.79 107.842L255.121 104.173C254.015 103.067 252.733 102.135 251.277 101.436L247.084 99.5724V95.5541H254.422L259.547 97.01L266.128 97.7671C267.933 97.7671 269.564 97.5342 270.903 97.1265C272.243 96.7188 273.582 96.1947 274.922 95.5541C277.484 94.4476 279.93 92.7587 282.318 90.4292C284.706 88.0997 286.569 85.3626 287.909 82.276C289.248 79.1312 289.947 75.7534 289.947 72.0845C289.947 68.532 289.248 65.4454 287.909 62.7083C286.686 59.7964 284.764 57.0593 282.143 54.5551C279.522 52.0509 276.494 50.0125 273.116 48.3819C269.68 46.8094 265.604 45.5282 260.886 44.5382H246.094V38.6562H253.432H322.967V44.5964H322.851Z" fill="white"/>
<path d="M428.027 44.5378H413.118V120.596C413.118 121.935 413.351 123.1 413.758 124.09C414.166 125.08 414.923 126.07 415.855 127.06L419 129.098H422.494V132.767H415.098H384.349V129.098C385.921 129.098 387.202 128.924 388.134 128.516C389.066 128.108 389.881 127.584 390.638 126.769C391.395 125.954 391.919 125.022 392.269 123.915L393.026 120.421V44.4796H349.173C353.949 45.3532 358.433 46.9255 362.626 49.255C366.819 51.5845 370.546 54.6129 373.866 58.2818C377.185 61.9508 379.69 65.9691 381.437 70.2205C383.184 74.4718 383.999 78.8979 383.999 83.4404C383.999 88.0994 383.126 92.3507 381.437 96.1944C379.69 100.038 377.185 103.59 373.866 106.91L368.508 111.336L362.801 114.306L356.336 116.17H349.173H341.777C337.992 116.17 334.381 115.762 331.061 114.889C327.975 113.782 325.063 112.151 322.326 109.997C319.589 107.842 317.492 105.454 316.153 102.833C314.813 100.213 314.114 97.3591 314.114 94.2725C314.114 91.1859 314.697 88.3323 315.862 85.7116C317.026 83.091 318.948 80.7032 321.685 78.6067C323.782 76.7431 326.402 75.2289 329.606 74.0059C332.809 72.7829 336.303 72.1423 340.088 72.1423H347.484C349.581 72.1423 351.677 72.55 353.774 73.4235C354.531 73.6565 355.521 74.1224 356.744 74.7048C357.967 75.3454 359.015 75.9277 359.889 76.5683L360.471 77.0925L361.054 77.4419L362.16 78.3737L363.267 79.3055C363.267 75.5201 362.335 71.7347 360.53 68.0657C359.074 64.455 356.802 61.0772 353.716 57.8742C350.629 54.6711 346.96 51.7593 342.651 49.1386C338.691 47.0421 334.265 45.4696 329.198 44.4796H310.387V38.5977H317.783H428.143V44.5378H428.027ZM346.378 110.113L349.115 107.143C350.222 105.454 351.153 103.532 351.852 101.436C352.202 99.8633 352.493 98.6986 352.609 97.9415C352.726 97.1844 352.784 95.9614 352.784 94.2725C352.784 91.5936 352.493 89.3224 351.852 87.4588C351.386 85.2457 350.454 83.2074 349.115 81.4021C348.358 80.2956 347.484 79.3637 346.378 78.6649L343.641 76.8013L340.671 78.6649L337.933 81.4021C336.827 83.2657 335.953 85.2457 335.255 87.4588C334.556 89.6718 334.264 91.943 334.264 94.2725C334.264 96.9514 334.614 99.3391 335.255 101.261C335.953 103.241 336.885 105.221 338.108 107.143L340.671 110.113L343.641 111.744C344.864 111.278 345.796 110.754 346.378 110.113Z" fill="white"/>
<path d="M460.817 38.5977V44.4796H446.083V120.013L446.665 123.682C447.131 124.789 447.83 125.721 448.703 126.419L451.673 128.458L455.342 129.04V132.709H447.946H416.614V128.865C417.837 129.098 419.002 129.04 420.109 128.691C421.215 128.341 422.205 127.701 423.137 126.769C424.069 125.837 424.768 124.847 425.234 123.741L425.991 120.246V44.5378H412.188V38.6559H419.585H460.817V38.5977Z" fill="white"/>
<path d="M548.519 44.5379H534.716V120.246L535.24 123.915C535.59 125.022 536.231 126.012 537.104 126.885L539.841 128.749L543.51 129.273V132.767H536.114H505.132V129.099L506.995 129.273H508.626L509.907 128.516L511.363 127.177L513.227 124.09L513.984 120.421V116.17C511.014 118.558 507.578 120.363 503.676 121.586C499.716 122.809 495.872 123.391 492.087 123.391H484.691C479.507 123.391 474.732 122.634 470.306 121.178C466.113 119.606 462.269 117.102 458.775 113.782C455.281 110.463 452.485 106.677 450.389 102.368C448.642 98.1745 447.826 93.632 447.826 88.7401C447.826 83.7317 448.7 79.2474 450.505 75.4037C452.311 71.5601 454.931 67.8911 458.425 64.5134C461.92 61.1356 465.938 58.5731 470.481 56.7678C475.023 54.9624 479.74 54.0889 484.691 54.0889H492.087C494.766 54.0889 497.561 54.4383 500.356 55.1954C503.21 55.6613 505.947 56.5931 508.626 57.9325L511.363 59.5632L513.926 61.1938V44.4215H442.818V38.5396H450.214H548.519V44.5379ZM503.385 112.326C506.821 110.23 510.373 107.376 514.042 103.649V73.5984C512.703 72.026 510.897 70.3954 508.684 68.8229L502.628 64.5716L497.852 62.5333C493.717 61.485 489.349 61.8345 485.448 63.5816C485.156 63.6981 484.865 63.8727 484.574 63.9892C482.128 65.0957 479.624 66.8429 477.003 69.1724C474.382 71.5018 472.286 74.4719 470.539 78.0244C469.199 81.3439 468.501 84.8964 468.501 88.7401C468.501 90.8366 468.617 92.642 468.85 94.1562C469.083 95.6703 469.665 97.4175 470.481 99.3975C471.937 102.601 474.091 105.629 476.945 108.424C479.158 110.521 481.72 112.21 484.691 113.607C485.564 113.957 486.554 114.364 487.719 114.714C488.884 115.063 490.747 115.587 493.368 116.17C495.057 115.937 496.746 115.471 498.318 114.889C500.007 114.306 501.638 113.433 503.385 112.326Z" fill="white"/>
<path d="M522.838 89.5552C522.838 105.105 510.492 117.334 494.768 117.276C479.801 117.218 467.222 104.58 467.164 89.497C467.164 74.1224 479.801 61.6013 495.234 61.6013C510.609 61.6596 522.838 74.1223 522.838 89.5552ZM471.531 89.4387C471.531 102.484 482.072 113.2 494.943 113.2C507.871 113.258 518.704 102.542 518.704 89.7882C518.704 76.4518 508.104 65.6779 495.001 65.7362C482.072 65.7944 471.59 76.3935 471.531 89.4387Z" fill="white"/>
<path d="M406.538 18.0982C406.538 15.7105 407.003 13.381 407.935 11.168C408.925 8.83852 410.265 6.85844 412.07 5.11132C413.701 3.53891 415.623 2.25768 417.719 1.38412C419.525 0.627035 421.388 0.219345 423.368 0.0446335C424.999 -0.0718411 426.571 0.0446335 428.144 0.33582C430.298 0.743481 432.278 1.55886 434.084 2.72361C436.122 4.00483 437.869 5.63541 439.209 7.61548C440.257 9.07141 441.072 10.6439 441.596 12.391C442.179 14.1381 442.47 15.9434 442.528 17.7488C442.586 19.1465 442.47 20.6025 442.179 21.9419C441.596 24.5044 440.606 26.8338 439.034 28.9304C438.452 29.7457 437.811 30.5028 437.054 31.1434C436.297 31.9004 435.365 32.3081 434.259 32.3081C433.501 32.3081 432.803 32.017 432.162 31.5511C430.997 30.6775 429.774 30.0369 428.435 29.571C426.921 29.1051 425.406 28.9304 423.834 28.9886C422.495 29.0469 421.213 29.3381 419.99 29.8039C418.826 30.2116 417.719 30.8522 416.787 31.6093C415.448 32.6576 413.468 32.5411 412.187 31.3181C410.265 29.5127 408.809 27.358 407.819 24.912C407.236 23.3978 406.771 21.8254 406.654 20.253C406.596 19.5542 406.538 18.8553 406.538 18.0982Z" fill="#F00026"/>
<path d="M433.617 17.6908C433.617 20.7192 432.802 22.9322 430.997 24.7375C429.774 25.9605 428.318 26.7176 426.629 27.0088C424.474 27.4165 422.377 27.2417 420.397 26.2517C418.709 25.4364 417.486 24.1551 416.612 22.4663C415.855 21.0686 415.564 19.5544 415.622 17.982C415.738 14.8372 417.02 12.2747 419.699 10.4694C420.922 9.65406 422.261 9.30468 423.659 9.12997C424.998 9.0135 426.338 9.12994 427.619 9.5376C429.308 10.12 430.705 11.11 431.812 12.5659C432.918 14.0801 433.617 16.0602 433.617 17.6908Z" fill="white"/>
</svg>
