<svg width="32" height="32" viewBox="0 0 32 32" fill="none" xmlns="http://www.w3.org/2000/svg">
<path d="M29.8048 28.95H2.39519C1.97005 28.95 1.625 28.605 1.625 28.1798V0.770193C1.625 0.345047 1.97005 0 2.39519 0H29.8017C30.2269 0 30.5719 0.345047 30.5719 0.770193V28.1768C30.575 28.605 30.23 28.95 29.8048 28.95Z" fill="#F00026"/>
<path d="M21.3681 17.3941L24.7939 16.9258L22.6774 19.6584C20.5147 22.4527 18.7402 25.5273 17.4001 28.796L16.0938 32L14.7845 28.7991C13.4474 25.5273 11.6729 22.4527 9.50712 19.6615L7.39062 16.9289L10.8164 17.3971C14.3193 17.8716 17.8683 17.8716 21.3681 17.3941Z" fill="#F00026"/>
<path d="M20.2825 5.61439H8.65568C9.13628 5.79307 9.56451 6.01797 9.94036 6.28907C10.3316 6.51397 10.6643 6.77276 10.9416 7.06543C11.2189 7.3581 11.4407 7.68466 11.6071 8.04203C11.681 8.2084 11.7395 8.35319 11.7765 8.4795C11.8135 8.60582 11.832 8.79066 11.832 9.03096C11.832 9.53929 11.7303 9.99833 11.527 10.4019C11.3236 10.8055 11.0063 11.1875 10.5688 11.548C10.193 11.8622 9.73395 12.1241 9.19482 12.3336C8.668 12.4968 8.12887 12.58 7.57433 12.58C7.81463 13.0606 8.07341 13.4765 8.35068 13.8277C8.62795 14.1789 8.92371 14.4839 9.24103 14.7366C9.29956 14.7828 9.41355 14.8721 9.57991 15.0077C9.66926 15.0816 9.78941 15.1648 9.94036 15.2541L10.5935 15.5252L11.0433 15.3681L11.5177 15.097C11.7426 14.946 11.9614 14.752 12.1708 14.5117L12.7562 13.7445C12.4111 13.3256 12.1246 12.8573 11.8997 12.349C11.8258 12.1395 11.758 11.8899 11.6964 11.6065C11.6348 11.32 11.6071 11.0581 11.6071 10.8178C11.6071 10.2787 11.6995 9.77035 11.8874 9.29591C12.0753 8.82147 12.3711 8.384 12.7778 7.97734C13.1844 7.57068 13.6311 7.26876 14.1179 7.06543C14.6047 6.8621 15.1191 6.76043 15.6614 6.76043H16.5609C17.0878 6.76043 17.5961 6.87134 18.0921 7.09624C18.5419 7.25952 18.9855 7.55219 19.4199 7.97118C19.8112 8.39016 20.1069 8.83071 20.3102 9.29283C20.5136 9.75494 20.6152 10.2633 20.6152 10.8147C20.6152 11.0982 20.5937 11.3631 20.5475 11.6096C20.5013 11.856 20.4212 12.1148 20.301 12.3828C20.1223 12.845 19.8266 13.2793 19.423 13.6829C19.0163 14.0865 18.5696 14.3853 18.0828 14.5794C17.5961 14.7735 17.0878 14.869 16.5609 14.869H15.6614L14.6016 14.8013C14.3921 14.755 14.2319 14.715 14.1271 14.678C14.0224 14.6411 13.8868 14.5764 13.7205 14.487C13.5264 14.7735 13.3138 15.02 13.0889 15.2295L12.3742 15.7963C12.0723 16.0058 11.7519 16.1722 11.4068 16.2923C11.225 16.3386 11.0679 16.3755 10.9324 16.4063C10.7968 16.4371 10.6459 16.4525 10.4826 16.4525H10.1221H9.21946H8.74502L8.29523 16.317L7.82079 16.1137L7.34635 15.821C7.00131 15.5653 6.70863 15.3034 6.46833 15.0323C6.16642 14.6873 5.91996 14.333 5.72587 13.9725L5.32228 13.4026L4.89406 12.9497C4.7431 12.7987 4.5983 12.6817 4.45351 12.6016C4.31179 12.5184 4.14851 12.4537 3.96983 12.4106L3.94826 11.8899H4.85093C4.98648 11.9793 5.18057 12.047 5.43627 12.0933L6.29273 12.1826C6.48682 12.1826 6.65934 12.161 6.8103 12.1148C6.96126 12.0686 7.13994 12.0008 7.35251 11.9115C7.66675 11.7759 7.97483 11.5572 8.27675 11.2584C8.57558 10.9564 8.8128 10.6145 8.98532 10.2325C9.15785 9.84737 9.24411 9.44687 9.24411 9.0248C9.24411 8.75369 9.23179 8.56577 9.21022 8.46102C9.18866 8.35627 9.13936 8.20532 9.06234 8.00815C8.94219 7.69083 8.76043 7.37351 8.52013 7.05003C8.27983 6.72654 8.00256 6.45236 7.68524 6.22746C7.371 6.00256 6.97974 5.79923 6.51454 5.61747H3.60938V4.875H4.51204H20.2825V5.61439ZM15.7076 7.98042C15.4519 8.11597 15.1992 8.32238 14.9528 8.59965C14.7063 8.87692 14.4845 9.21889 14.2873 9.62555C14.2257 9.77651 14.1733 9.96136 14.1302 10.177C14.084 10.3957 14.0624 10.6083 14.0624 10.8178C14.0624 11.2091 14.1333 11.6034 14.275 12.0008C14.4167 12.3982 14.6324 12.7402 14.9158 13.0267C15.1407 13.267 15.3903 13.4704 15.6583 13.6336C15.9294 13.7692 16.2128 13.8585 16.5147 13.9047C16.6811 13.9047 16.8259 13.8832 16.9553 13.837C17.0816 13.7908 17.2295 13.723 17.3958 13.6336C17.6515 13.4981 17.9103 13.2948 18.1722 13.0267C18.4341 12.7556 18.6497 12.4198 18.813 12.0132C18.8715 11.8622 18.927 11.6804 18.9701 11.4617C19.0163 11.243 19.0379 11.0304 19.0379 10.8209C19.0379 10.3865 18.967 9.98292 18.8222 9.61631C18.6805 9.2497 18.4587 8.90773 18.1568 8.59041C17.9319 8.33471 17.6823 8.13754 17.4143 7.99274C17.1432 7.85103 16.8505 7.74936 16.5363 7.68775C16.2714 7.71855 15.9941 7.81406 15.7076 7.98042Z" fill="white"/>
<path d="M23.6178 4.87109V5.59199H21.8155V14.8282L21.8833 15.2779C21.9418 15.4135 22.025 15.5244 22.1298 15.6168L22.4902 15.8633L22.94 15.9311V16.3809H22.0373H18.211V15.9064C18.362 15.9372 18.5037 15.928 18.6392 15.8849C18.7748 15.8386 18.898 15.7616 19.012 15.6476C19.126 15.5337 19.2123 15.4104 19.2708 15.2749L19.3601 14.8466V5.59199H17.6719V4.87109H18.5715H23.6178Z" fill="white"/>
<path d="M26.8947 16.4084H25.4128V23.9625C25.4128 24.098 25.4344 24.2151 25.4775 24.3106C25.5206 24.4092 25.5915 24.5078 25.687 24.6033L25.9982 24.8066H26.3463V25.1732H25.6131H22.5569V24.8066C22.714 24.8066 22.8404 24.7881 22.9328 24.7512C23.0252 24.7142 23.1053 24.6557 23.1792 24.5786C23.2532 24.4985 23.3086 24.4061 23.3425 24.2952L23.4165 23.9471V16.4084H19.0633C19.5378 16.4947 19.9845 16.6518 20.4004 16.886C20.8163 17.117 21.186 17.4189 21.5156 17.7855C21.8453 18.1522 22.0948 18.5465 22.2643 18.9686C22.4337 19.3906 22.52 19.8281 22.52 20.281C22.52 20.7462 22.4337 21.1682 22.2643 21.5472C22.0948 21.9261 21.8422 22.2804 21.5156 22.61L20.9857 23.0506L20.4189 23.3433L19.7781 23.5281H19.0633H18.3301C17.9512 23.5281 17.5969 23.485 17.2672 23.3987C16.9622 23.2878 16.6727 23.1276 16.3985 22.915C16.1243 22.7025 15.9209 22.4652 15.7854 22.2003C15.6498 21.9384 15.5851 21.655 15.5851 21.35C15.5851 21.045 15.6437 20.7616 15.7577 20.4997C15.8747 20.2378 16.0657 20.0037 16.3338 19.7942C16.5402 19.6124 16.802 19.4584 17.1194 19.3352C17.4367 19.215 17.7848 19.1534 18.1637 19.1534H18.897C19.1034 19.1534 19.3129 19.1965 19.5193 19.2828C19.5932 19.3074 19.6887 19.3506 19.812 19.4122C19.9352 19.4738 20.0369 19.5354 20.1231 19.594L20.1786 19.6494L20.234 19.6864L20.3449 19.7788L20.4558 19.8712C20.4558 19.4923 20.3634 19.1195 20.1817 18.7529C20.0338 18.3955 19.8089 18.0597 19.5039 17.7393C19.1989 17.4189 18.8323 17.1324 18.4071 16.8736C18.0159 16.6641 17.5722 16.5101 17.0701 16.4115H15.2031V15.8262H15.9363H26.8977V16.4084H26.8947ZM18.7861 22.9212L19.0603 22.6285C19.1712 22.4591 19.2605 22.2681 19.3344 22.0617C19.3714 21.9045 19.3961 21.7875 19.4084 21.7135C19.4207 21.6396 19.4269 21.5194 19.4269 21.3469C19.4269 21.0789 19.3961 20.854 19.3344 20.6691C19.2851 20.4504 19.1927 20.2471 19.0603 20.0653C18.9863 19.9544 18.897 19.8651 18.7861 19.7911L18.5119 19.6094L18.2192 19.7911L17.945 20.0653C17.8341 20.2471 17.7478 20.4504 17.6801 20.6691C17.6123 20.8879 17.5784 21.1159 17.5784 21.3469C17.5784 21.6149 17.6123 21.846 17.6801 22.0432C17.7478 22.2373 17.8403 22.4344 17.9635 22.6285L18.2192 22.9212L18.5119 23.0845C18.6351 23.0383 18.7275 22.9828 18.7861 22.9212Z" fill="white"/>
</svg>
